<?xml version="1.0" standalone="no"?>
<!DOCTYPE svg PUBLIC "-//W3C//DTD SVG 1.1//EN" "http://www.w3.org/Graphics/SVG/1.1/DTD/svg11.dtd" >
<svg xmlns="http://www.w3.org/2000/svg" xmlns:xlink="http://www.w3.org/1999/xlink" version="1.1">
<metadata></metadata>
<defs>
<font id="mazelettermetropolis" horiz-adv-x="2048" >
<font-face units-per-em="2048" ascent="1536" descent="-512" />
<missing-glyph horiz-adv-x="512" />
<glyph horiz-adv-x="0" />
<glyph horiz-adv-x="0" />
<glyph unicode=" "  horiz-adv-x="512" />
<glyph unicode="&#x09;" horiz-adv-x="512" />
<glyph unicode="&#xa0;" horiz-adv-x="512" />
<glyph unicode="!" horiz-adv-x="1024" d="M-72 0l512 512l-55 55l-385 -383l-72 72l256 256l-55 55l-129 -127l-72 72l512 512l-512 512l72 72l713 -711l-256 -256l55 -57l440 440l-512 512l72 72l584 -584l-1096 -1096zM-72 -512l1096 1096l72 -72l-512 -512l57 -55l383 383l72 -72l-256 -256l57 -55l127 127 l72 -72l-584 -584l-201 199l256 256l-55 57l-512 -512z" />
<glyph unicode="&#x22;" d="M-72 0l512 512l-512 512l72 72l584 -584l-584 -584zM-72 -256l328 328l72 -72l-328 -328zM-72 1536l72 72l1096 -1096l-768 -768l256 -256l-72 -72l-328 328l768 768zM55 641l74 72l199 -201l-72 -72zM55 1153l74 72l199 -201l-72 -72zM184 1536l72 72l328 -328l-72 -72z M440 256l328 328l72 -72l-328 -328zM440 1536l72 72l768 -768l184 184l-512 512l72 72l1096 -1096l-72 -72l-512 512l-256 -256zM567 -129l201 201l72 -72l-199 -201zM696 -256l840 840l328 -328l-840 -840l-72 72l768 768l-184 184l-768 -768zM696 -512l328 328l72 -72 l-328 -328zM696 1024l72 72l328 -328l-72 -72zM952 256l201 201l72 -72l-201 -201zM952 1280l72 72l201 -199l-72 -74zM1208 0l328 328l72 -72l-328 -328zM1208 1536l72 72l201 -199l-72 -74zM1464 768l72 72l201 -199l-72 -74zM1464 1536l72 72l584 -584l-72 -72z M1591 -129l201 201l72 -72l-199 -201zM1591 -385l74 74l199 -201l-72 -72zM1591 1153l74 72l328 -328l-72 -74zM1720 -256l328 328l72 -72l-256 -256l256 -256l-72 -72zM1847 385l74 72l199 -201l-72 -72z" />
<glyph unicode="#" d="M-72 0l256 256l-256 256l72 72l328 -328l-328 -328zM-72 -512l768 768l-768 768l72 72l256 -256l129 129l584 -584l-129 -129l696 -696l440 440l-696 696l-127 -129l-586 586l129 127l-256 256l72 72l768 -768l768 768l72 -72l-639 -639l440 -440l127 127l72 -72 l-256 -256l256 -256l-584 -584l-256 256l-256 -256l-72 72l127 127l-438 440l-641 -639zM-72 1536l72 72l1096 -1096l-72 -72zM311 -385l330 330l199 -201l-328 -328zM713 129l440 -440l55 55l-440 440zM952 256l328 328l328 -328l-328 -328zM952 1536l72 72l256 -256 l256 256l72 -72l-328 -328zM1335 -129l330 330l199 -201l-328 -328zM1352 768l440 -440l55 57l-438 438zM1591 897l330 328l199 -201l-328 -328zM1847 -385l74 74l199 -201l-72 -72z" />
<glyph unicode="$" d="M-72 -512l512 512l-512 512l256 256l-256 256l584 584l256 -256l256 256l72 -72l-328 -328l-256 256l-440 -440l512 -512l-256 -256l512 -512l-72 -72l-256 256l-512 -512zM440 1024l72 72l256 -256l256 256l328 -328l-256 -256l696 -696l256 256l72 -72l-584 -584 l-256 256l-256 -256l-72 72l512 512l-184 184l-256 -256l-328 328l256 256zM840 768l184 -184l55 57l-182 182zM969 897l184 -184l55 55l-184 184zM1208 1280l72 72l256 -256l512 512l72 -72l-512 -512l512 -512l-328 -328l-328 328l256 256zM1352 -256l184 -184l55 55 l-182 184zM1481 -129l184 -182l55 55l-184 184zM1608 512l184 -184l55 57l-182 182zM1737 641l184 -184l55 55l-184 184z" />
<glyph unicode="%" d="M-72 0l256 256l-256 256l72 72l328 -328l-328 -328zM-72 -512l584 584l512 -512l256 256l256 -256l512 512l72 -72l-584 -584l-256 256l-256 -256l-512 512l-512 -512zM-72 1024l72 72l512 -512l256 256l328 -328l-256 -256l256 -256l-72 -72l-328 328l256 256l-184 184 l-256 -256zM184 1280l328 328l328 -328l-328 -328zM328 1280l184 -184l55 57l-182 182zM457 1409l184 -184l55 55l-184 184zM952 1024l256 256l-256 256l72 72l328 -328l-328 -328zM1208 256l328 328l328 -328l-328 -328zM1208 766l328 348l584 -604l-74 -70l-510 527 l-254 -271zM1720 1280l328 328l72 -72l-256 -256l256 -256l-72 -72z" />
<glyph unicode="&#x26;" d="M-72 0l72 72l512 -512l184 184l-768 768l328 328l1280 -1280l512 512l72 -72l-584 -584l-512 512l-512 -512zM-72 1536l72 72l768 -768l184 184l-256 256l328 328l768 -768l184 184l-512 512l72 72l584 -584l-512 -512l256 -256l-328 -328zM72 512l696 -696l184 184 l-696 696zM840 768l696 -696l55 57l-694 694zM969 897l696 -696l55 55l-696 696z" />
<glyph unicode="'" d="M-72 0l512 512l-512 512l72 72l584 -584l-584 -584zM-72 -512l1024 1024l-768 768l328 328l72 -72l-256 -256l768 -768l-1096 -1096zM-72 1280l72 72l328 -328l-72 -72zM55 -129l201 201l72 -72l-199 -201zM55 385l201 199l72 -72l-199 -201zM184 -512l328 328l72 -72 l-328 -328zM440 -512l840 840l256 -256l512 512l72 -72l-1096 -1096l-72 72l512 512l-184 184l-768 -768zM440 768l72 72l328 -328l-72 -72zM567 1153l74 72l199 -201l-72 -72zM696 0l328 328l72 -72l-328 -328zM696 1280l72 72l768 -768l184 184l-768 768l72 72l840 -840 l-328 -328zM696 1536l72 72l328 -328l-72 -72zM952 -256l201 201l72 -74l-201 -199zM952 768l72 72l201 -199l-72 -74zM1208 -512l201 201l72 -74l-201 -199zM1208 1024l72 72l328 -328l-72 -72zM1464 256l201 201l72 -72l-201 -201zM1464 -512l584 584l72 -72l-584 -584z M1591 -129l330 330l72 -72l-328 -330zM1591 1153l74 72l199 -201l-72 -72zM1591 1409l201 199l72 -72l-199 -201zM1720 1280l328 328l72 -72l-256 -256l256 -256l-72 -72zM1847 641l201 199l72 -72l-199 -201z" />
<glyph unicode="(" horiz-adv-x="512" d="M-72 0l201 201l328 -330l-457 -455l-72 72l256 256zM-72 512l256 256l-129 129l330 328l199 -201l-512 -512l512 -512l-72 -72zM-72 1024l256 256l-256 256l72 72l328 -328l-328 -328zM72 0l184 -184l55 55l-182 184zM201 897l55 -57l184 184l-55 55z" />
<glyph unicode=")" horiz-adv-x="512" d="M-72 0l512 512l-512 512l72 72l584 -584l-584 -584zM55 -129l330 330l72 -72l-328 -330zM55 1153l74 72l328 -328l-72 -74zM184 -256l328 328l72 -72l-256 -256l256 -256l-72 -72zM184 1280l328 328l72 -72l-256 -256l256 -256l-72 -72z" />
<glyph unicode="*" d="M-72 0l256 256l-256 256l72 72l328 -328l-328 -328zM-72 -512l1608 1608l72 -72l-1608 -1608zM-72 1024l328 328l72 -72l-328 -328zM55 641l74 72l455 -457l-199 -201l-74 74l129 127zM184 768l328 328l457 -455l-72 -74l-385 385l-184 -184l385 -383l-72 -74zM440 768 l72 72l328 -328l-72 -72zM440 1536l72 72l457 -455l-72 -74zM567 -129l1098 1098l72 -72l-1096 -1098zM567 1153l74 72l455 -457l-72 -72zM696 -256l457 457l72 -72l-385 -385l256 -256l-72 -72zM823 1409l74 72l127 -129l129 129l72 -72l-201 -201zM952 1024l328 328 l72 -72l-328 -328zM1079 897l330 328l72 -72l-328 -330zM1208 256l201 201l72 -72l-129 -129l768 -768l-72 -72zM1208 -256l72 72l328 -328l-72 -72zM1464 512l328 328l72 -72l-256 -256l256 -256l-72 -72zM1464 1536l72 72l328 -328l-72 -72z" />
<glyph unicode="+" horiz-adv-x="512" d="M-72 0l256 256l-256 256l72 72l328 -328l-328 -328zM-72 1024l256 256l-256 256l72 72l328 -328l-328 -328zM55 -129l330 330l72 -72l-328 -330zM55 897l330 328l72 -72l-328 -330zM184 -256l328 328l72 -72l-256 -256l256 -256l-72 -72zM184 768l328 328l72 -72 l-256 -256l256 -256l-72 -72z" />
<glyph unicode="," horiz-adv-x="512" d="M-72 0l256 256l-256 256l72 72l129 -127l127 127l201 -199l-457 -457zM-72 -512l584 584l72 -72l-584 -584zM-72 1024l72 72l584 -584l-72 -72zM55 1153l457 455l72 -72l-256 -256l256 -256l-72 -72l-127 127l-129 -127z" />
<glyph unicode="-" horiz-adv-x="512" d="M-72 0l584 584l72 -72l-584 -584zM-72 256l584 584l72 -72l-584 -584zM-72 512l584 584l72 -72l-584 -584zM-72 768l457 457l72 -72l-457 -457zM-72 1024l256 256l-256 256l72 72l328 -328l-328 -328zM55 -129l457 457l72 -72l-455 -457zM184 -256l328 328l72 -72 l-256 -256l256 -256l-72 -72z" />
<glyph unicode="." horiz-adv-x="512" d="M-72 0l201 201l199 -201l-199 -201zM-72 -512l512 512l-512 512l512 512l-512 512l72 72l584 -584l-512 -512l512 -512l-584 -584zM-72 768l256 256l-256 256l72 72l328 -328l-328 -328zM184 512l201 201l199 -201l-199 -201zM184 -512l328 328l72 -72l-328 -328z M184 1536l72 72l328 -328l-72 -72z" />
<glyph unicode="/" horiz-adv-x="1024" d="M-72 0l72 72l584 -584l-72 -72zM-72 512l256 256l-256 256l72 72l328 -328l-328 -328zM-72 1536l72 72l256 -256l127 129l586 -584l-512 -512l512 -514l-129 -127l256 -256l-72 -72l-256 256l-129 -129l-584 586l512 512l-512 512l129 127zM201 1153l438 -440l57 55 l-440 440zM328 1280l440 -440l55 57l-440 438zM440 1536l72 72l584 -584l-72 -72zM696 256l328 328l72 -72l-256 -256l256 -256l-72 -72z" />
<glyph unicode="0" d="M-72 0l328 328l840 -840l-72 -72l-768 768l-256 -256zM-72 -256l328 328l584 -584l-72 -72l-512 512l-256 -256zM-72 -512l328 328l328 -328l-72 -72l-256 256l-256 -256zM-72 1024l72 72l256 -256l768 768l72 -72l-840 -840zM-72 1280l72 72l256 -256l512 512l72 -72 l-584 -584zM-72 1536l72 72l256 -256l256 256l72 -72l-328 -328zM440 512l840 840l840 -840l-840 -840zM584 512l696 -696l696 696l-696 696zM696 512l584 584l328 -328l-584 -584zM1079 129l586 584l199 -201l-584 -584zM1464 -512l584 584l72 -72l-584 -584zM1464 1536 l72 72l584 -584l-72 -72zM1720 -512l328 328l72 -72l-328 -328zM1720 1536l72 72l328 -328l-72 -72z" />
<glyph unicode="1" d="M-72 0l1608 1608l72 -72l-1608 -1608zM-72 -512l1608 1608l72 -72l-1608 -1608zM-72 512l328 328l72 -72l-328 -328zM-72 1024l584 584l72 -72l-584 -584zM55 1409l201 199l72 -72l-199 -201zM184 1024l72 72l328 -328l-72 -72zM311 1153l201 199l72 -72l-199 -201z M440 -512l328 328l72 -72l-328 -328zM440 1024l584 584l72 -72l-584 -584zM567 385l201 199l72 -72l-199 -201zM567 897l201 199l72 -72l-199 -201zM696 0l72 72l328 -328l-72 -72zM823 129l201 199l72 -72l-199 -201zM952 0l1096 1096l72 -72l-1096 -1096zM952 -512 l1096 1096l72 -72l-1096 -1096zM1079 -129l201 201l72 -72l-199 -201zM1335 -385l201 201l72 -72l-199 -201zM1464 -512l584 584l72 -72l-584 -584zM1464 1280l72 72l328 -328l-72 -72zM1720 1280l328 328l72 -72l-328 -328zM1847 -385l201 201l72 -72l-199 -201z" />
<glyph unicode="2" d="M-72 0l512 512l-184 184l-127 -129l-201 201l201 201l383 -385l440 440l-385 385l201 199l201 -199l-129 -129l184 -184l512 512l256 -256l129 129l199 -201l-199 -201l-385 385l-440 -440l385 -383l-201 -201l-201 201l129 127l-184 184l-440 -440l184 -184l129 129 l199 -201l-199 -201l-385 385l-440 -440l385 -385l-201 -199l-201 199l129 129zM-72 256l127 129l-127 127l72 72l129 -127l127 127l72 -72l-328 -328zM-72 1024l256 256l-256 256l72 72l256 -256l256 256l72 -72l-256 -256l313 -311l127 127l72 -72l-328 -328l-72 72 l127 129l-311 311l-256 -256zM184 0l328 328l72 -72l-127 -127l311 -313l440 440l-311 311l-129 -127l-72 72l328 328l72 -72l-127 -127l311 -313l440 440l-311 311l-129 -127l-72 72l328 328l72 -72l-127 -127l311 -313l256 256l72 -72l-256 -256l256 -256l-72 -72 l-256 256l-440 -440l313 -311l127 127l72 -72l-328 -328l-72 72l127 127l-311 313l-440 -440l256 -256l-72 -72l-256 256l-256 -256l-72 72l256 256l-311 311l-129 -127zM952 -256l201 201l383 -385l440 440l-385 385l201 199l201 -199l-129 -129l256 -256l-584 -584 l-256 256l-127 -129zM952 1280l127 129l-127 127l72 72l129 -127l127 127l72 -72l-328 -328zM1720 -512l328 328l72 -72l-127 -129l127 -127l-72 -72l-127 127l-129 -127z" />
<glyph unicode="3" d="M-72 0l72 72l256 -256l55 55l-383 385l127 129l-127 127l72 72l512 -512l184 184l-768 768l72 72l840 -840l-840 -840l-72 72l256 256zM-72 1280l328 328l72 -72l-127 -127l823 -825l184 184l-768 768l72 72l768 -768l184 184l-512 512l72 72l129 -127l127 127l385 -383 l55 55l-256 256l72 72l256 -256l256 256l72 -72l-1096 -1096l-895 895l-129 -127zM184 -512l1864 1864l72 -72l-1864 -1864zM440 -512l1608 1608l72 -72l-1608 -1608zM952 -512l1096 1096l72 -72l-1096 -1096zM1208 -512l840 840l72 -72l-840 -840zM1464 -512l584 584 l72 -72l-584 -584z" />
<glyph unicode="4" d="M-72 0l584 584l584 -584l-256 -256l256 -256l-72 -72l-256 256l-256 -256zM-72 512l1096 1096l256 -256l256 256l584 -584l-584 -584l-584 584l256 256l-184 184l-440 -440l952 -952l512 512l72 -72l-512 -512l512 -512l-72 -72l-512 512l-256 -256l-72 72l256 256 l-952 952l-512 -512zM-72 1536l72 72l328 -328l-72 -72zM72 0l313 -311l438 440l-311 311zM457 -385l55 -55l440 440l-55 55zM1352 768l184 -184l440 440l-184 184z" />
<glyph unicode="5" d="M-72 0l256 256l-256 256l72 72l328 -328l-328 -328zM-72 -512l201 201l72 -74l-201 -199zM-72 768l201 201l127 -129l768 768l72 -72l-256 -256l129 -127l-201 -201l-127 127l-313 -311l440 -440l440 440l-129 129l201 199l201 -199l-129 -129l440 -440l129 129l199 -201 l-199 -201l-129 129l-639 -641l-201 201l201 201l127 -129l440 440l-440 440l-512 -512l-512 512l-127 -129zM-72 1024l256 256l-129 129l201 199l129 -127l127 127l72 -72l-584 -584zM72 768l57 -55l55 55l-55 55zM184 -256l256 256l-129 129l201 199l201 -199l-129 -129 l184 -184l641 641l199 -201l-199 -201l-129 129l-440 -440l256 -256l-72 -72l-512 512l-184 -184l256 -256l-72 -72zM201 1409l55 -57l55 57l-55 55zM457 129l55 -57l55 57l-55 55zM567 641l969 967l72 -72l-256 -256l184 -184l512 512l72 -72l-383 -383l127 -129l-199 -201 l-385 385l-440 -440l129 -127l-201 -201zM713 641l55 -57l55 57l-55 55zM713 1153l55 -57l55 57l-55 55zM1096 -256l57 -55l55 55l-55 55zM1225 897l55 -57l55 57l-55 55zM1352 256l57 -55l55 55l-55 55zM1464 -512l584 584l72 -72l-584 -584zM1608 1024l57 -55l55 55 l-55 55zM1720 768l328 328l72 -72l-256 -256l256 -256l-72 -72zM1864 256l57 -55l55 55l-55 55z" />
<glyph unicode="6" d="M-72 0l201 201l328 -330l-457 -455l-72 72l256 256zM-72 512l256 256l-256 256l328 328l328 -328l-584 -584zM184 256l328 328l328 -328l-328 -328zM201 1153l184 -184l55 55l-184 184zM311 1409l201 199l256 -256l256 256l72 -72l-455 -457zM328 256l184 -184l55 57 l-182 182zM440 -512l457 457l328 -330l-201 -199l-256 256l-256 -256zM567 641l586 584l328 -328l-584 -586zM840 768l184 -184l184 184l-184 184zM952 0l457 457l328 -328l-457 -457zM1096 0l184 -184l184 184l-184 184zM1208 1280l328 328l256 -256l256 256l72 -72 l-584 -584zM1352 1280l184 -184l55 57l-182 182zM1464 512l584 584l72 -72l-383 -383l184 -184l127 127l72 -72l-328 -328zM1464 -512l584 584l72 -72l-584 -584z" />
<glyph unicode="7" d="M-72 0l256 256l-256 256l72 72l129 -127l127 127l72 -72l-127 -127l256 -256l-72 -74l-129 129l-256 -256zM-72 -512l639 641l-127 127l72 72l129 -127l55 55l-184 184l-127 -129l-74 74l129 127l-184 184l-127 -129l-201 201l72 72l129 -127l182 184l-127 127l72 72 l129 -127l182 184l-127 127l72 72l129 -127l182 184l-127 127l72 72l129 -127l127 127l256 -256l55 57l-127 127l72 72l129 -127l127 127l72 -72l-328 -328l-256 256l-184 -184l129 -127l-72 -74l-129 129l-184 -184l129 -127l-72 -74l-129 129l-184 -184l313 -311l127 127 l72 -72l-127 -127l184 -184l127 127l72 -72l-199 -201l-129 129l-184 -184l129 -129l-72 -72l-129 129l-512 -512zM-72 1024l584 584l201 -199l-72 -74l-129 129l-184 -184l129 -127l-72 -74l-129 129l-184 -184l129 -127l-72 -74zM440 -512l383 383l-127 129l72 72 l129 -127l311 311l-184 184l-127 -129l-74 74l129 127l-184 184l-127 -129l-201 201l72 72l129 -127l182 184l-127 127l72 72l129 -127l182 184l-127 127l72 72l201 -199l-129 -129l129 -127l-72 -74l-129 129l-184 -184l57 -55l127 127l72 -72l-127 -127l184 -184l127 127 l72 -72l-127 -127l256 -256l-72 -74l-129 129l-184 -184l129 -129l-72 -72l-129 129l-184 -184l129 -129l-72 -72l-129 129l-256 -256zM952 -256l72 72l201 -201l-201 -199l-72 72l127 127zM1079 641l969 967l72 -72l-768 -768l641 -639l-72 -74l-129 129l-184 -184 l129 -129l-72 -72l-129 129l-184 -184l129 -129l-72 -72l-201 201l127 127l-127 129l72 72l129 -127l182 184l-127 127l72 72l129 -127l55 55l-184 184l-127 -129l-74 74l129 127l-184 184l-127 -129zM1464 -256l72 72l129 -127l182 182l-127 129l72 72l129 -127l127 127 l72 -72l-584 -584l-72 72l127 127zM1720 768l328 328l72 -72l-256 -256l256 -256l-72 -72z" />
<glyph unicode="8" d="M-72 0l72 72l584 -584l-72 -72zM-72 512l256 256l-256 256l72 72l328 -328l-328 -328zM-72 1280l127 129l-127 127l72 72l129 -127l127 127l385 -383l55 55l-256 256l72 72l328 -328l-455 -457zM184 0l127 129l-127 127l328 328l584 -584l-72 -72l-512 512l-184 -184 l57 -55l127 127l457 -457l-129 -127l256 -256l-72 -72l-256 256l-127 -129zM696 768l328 328l1096 -1096l-72 -72l-1024 1024l-184 -184l184 -184l129 129l328 -328l-129 -129l256 -256l-256 -256l256 -256l-72 -72l-328 328l256 256l-184 184l-127 -129l-330 330l129 127z M952 1536l72 72l385 -383l127 127l201 -199l-129 -129l57 -55l127 127l201 -199l-129 -129l256 -256l-72 -72l-256 256l-127 -129l-201 201l127 129l-55 55l-127 -129l-201 201l127 129zM1464 1536l72 72l584 -584l-72 -72zM1591 -385l330 330l199 -201l-127 -129l127 -127 l-72 -72l-127 127l-129 -127z" />
<glyph unicode="9" d="M-72 0l72 72l584 -584l-72 -72l-256 256l-256 -256l-72 72l256 256zM-72 512l1096 1096l72 -72l-1024 -1024l768 -768l-72 -72zM-72 1024l256 256l-256 256l72 72l256 -256l256 256l72 -72l-584 -584zM440 512l328 328l72 -72l-256 -256l768 -768l-328 -328l-72 72 l256 256zM952 512l328 328l840 -840l-256 -256l256 -256l-72 -72zM952 1024l328 328l840 -840l-72 -72l-768 768l-256 -256zM1096 512l184 -184l184 184l-184 184zM1352 256l184 -184l184 184l-184 184zM1464 1536l72 72l584 -584l-72 -72zM1608 0l184 -184l184 184 l-184 184z" />
<glyph unicode=":" horiz-adv-x="512" d="M-72 0l512 512l-512 512l584 584l72 -72l-512 -512l512 -512l-512 -512l512 -512l-72 -72zM-72 256l201 201l72 -72l-201 -201zM-72 -256l72 72l328 -328l-72 -72zM-72 768l72 72l201 -199l-72 -74zM-72 1280l328 328l72 -72l-328 -328zM184 0l201 201l199 -201 l-199 -201zM184 1024l201 201l199 -201l-199 -201z" />
<glyph unicode=";" horiz-adv-x="512" d="M-72 0l127 129l-127 127l457 457l199 -201l-584 -584zM-72 -256l201 201l127 -129l256 256l72 -72l-256 -256l256 -256l-72 -72l-256 256l-127 -129zM-72 512l256 256l-256 256l72 72l328 -328l-328 -328zM-72 1280l127 129l-127 127l72 72l584 -584l-199 -201z" />
<glyph unicode="&#x3c;" horiz-adv-x="512" d="M-72 -256l201 201l72 -74l-201 -199zM-72 512l584 584l72 -72l-512 -512l512 -512l-72 -72zM-72 -512l328 328l72 -72l-328 -328zM-72 768l457 457l72 -72l-457 -457zM-72 1536l72 72l328 -328l-72 -72zM184 512l328 328l72 -72l-328 -328zM184 -512l328 328l72 -72 l-328 -328z" />
<glyph unicode="=" horiz-adv-x="512" d="M-72 -256l256 256l-256 256l72 72l328 -328l-328 -328zM-72 512l72 72l328 -328l-72 -72zM-72 -512l328 328l328 -328l-72 -72l-256 256l-256 -256zM-72 768l72 72l584 -584l-72 -72zM-72 1280l72 72l201 -199l-72 -74zM-72 1536l72 72l256 -256l256 256l72 -72 l-328 -328zM184 768l72 72l328 -328l-72 -72zM184 1024l328 328l72 -72l-256 -256l256 -256l-72 -72zM311 -129l74 74l199 -201l-72 -72z" />
<glyph unicode="&#x3e;" horiz-adv-x="512" d="M-72 0l512 512l-512 512l72 72l584 -584l-584 -584zM-72 -256l72 72l328 -328l-72 -72zM-72 768l72 72l328 -328l-72 -72zM55 1153l74 72l455 -457l-72 -72zM184 -256l72 72l328 -328l-72 -72zM184 1280l328 328l72 -72l-328 -328zM311 -129l74 74l199 -201l-72 -72z" />
<glyph unicode="?" horiz-adv-x="1024" d="M-72 0l1024 1024l-512 512l72 72l584 -584l-895 -895l438 -440l385 383l72 -72l-584 -584l-72 72l127 127l-440 440l-127 -127zM-72 512l383 385l-127 127l127 129l-383 383l72 72l383 -383l129 127l328 -328l-328 -328l-129 127l-383 -383zM-72 -512l328 328l72 -72 l-328 -328zM311 129l328 328l129 -129l256 256l72 -72l-256 -256l129 -127l-330 -330zM457 129l182 -184l184 184l-184 182z" />
<glyph unicode="@" d="M-72 0l72 72l584 -584l-72 -72l-127 127l-129 -127l-72 72l127 127l-55 57l-256 -256l-72 72l256 256l-55 55l-129 -127l-72 72l127 127zM-72 512l72 72l768 -768l696 696l-567 567l-385 -383l-72 72l584 584l713 -711l-969 -969zM-72 1024l584 584l72 -72l-584 -584z M-72 1280l328 328l72 -72l-328 -328zM55 641l969 967l1096 -1096l-1096 -1096l-72 72l1024 1024l-952 952l-696 -696l569 -567l383 383l72 -72l-584 -584zM201 641l567 -569l55 57l-567 567zM567 641l330 328l328 -328l-328 -330zM969 1153l567 -569l55 57l-567 567z M1464 -512l584 584l72 -72l-584 -584zM1464 1536l72 72l129 -127l127 127l72 -72l-127 -127l55 -57l256 256l72 -72l-256 -256l57 -55l127 127l72 -72l-127 -127l127 -129l-72 -72zM1720 -512l328 328l72 -72l-328 -328z" />
<glyph unicode="A" horiz-adv-x="512" d="M-72 0l584 584l72 -72l-584 -584zM-72 256l328 328l72 -72l-328 -328zM-72 -256l584 584l72 -72l-584 -584zM-72 512l584 584l72 -72l-584 -584zM-72 -512l584 584l72 -72l-584 -584zM-72 1024l584 584l72 -72l-584 -584z" />
<glyph unicode="B" d="M-72 0l256 256l-256 256l72 72l256 -256l129 129l199 -201l-199 -201l-129 129l-256 -256zM-72 -512l768 768l-768 768l72 72l768 -768l897 897l72 -72l-1737 -1737zM-72 1536l72 72l512 -512l512 512l72 -72l-584 -584zM440 -512l256 256l-129 127l201 201l201 -201 l-129 -127l256 -256l-72 -72l-256 256l-256 -256zM567 641l969 967l584 -584l-1024 -1024l512 -512l-72 -72l-713 713l1024 1024l-182 182l-897 -895zM1464 0l584 584l72 -72l-512 -512l512 -512l-72 -72z" />
<glyph unicode="C" d="M-72 0l201 201l72 -72l-201 -201zM-72 512l72 72l256 -256l184 184l-256 256l584 584l256 -256l184 184l-256 256l72 72l256 -256l129 129l72 -72l-457 -457l-256 256l-440 -440l256 -256l-328 -328zM-72 -512l840 840l512 -512l440 440l-256 256l328 328l328 -328 l-72 -72l-256 256l-184 -184l256 -256l-584 -584l-512 512l-768 -768zM-72 768l840 840l328 -328l-72 -72l-256 256l-696 -696l256 -256l-72 -72zM-72 1024l584 584l72 -72l-584 -584zM440 -512l328 328l328 -328l-72 -72l-256 256l-256 -256zM440 768l328 328l385 -383 l567 567l-256 256l72 72l584 -584l-199 -201l-74 74l129 127l-184 184l-567 -567l383 -385l-328 -328zM584 768l696 -696l184 184l-696 696zM696 768l72 72l584 -584l-72 -72zM823 -129l74 74l383 -385l696 696l-256 256l72 72l328 -328l-840 -840zM1464 -512l584 584 l72 -72l-584 -584zM1847 1409l201 199l72 -72l-199 -201z" />
<glyph unicode="D" d="M-72 0l72 72l385 -383l55 55l-129 127l129 129l-256 256l512 512l-385 385l457 455l201 -199l-129 -129l1280 -1280l-72 -72l-1280 1280l-127 -129l-129 129l-55 -55l383 -385l-512 -512l184 -184l129 129l199 -201l-455 -457zM-72 512l72 72l129 -127l55 55l-256 256 l127 129l-127 127l72 72l129 -127l127 127l328 -328l-455 -457zM-72 1536l72 72l256 -256l256 256l72 -72l-328 -328zM72 768l184 -184l184 184l-184 184zM440 -512l328 328l328 -328l-72 -72l-256 256l-256 -256zM457 -129l55 -55l184 184l-55 55zM567 385l457 455 l328 -328l-127 -127l895 -897l-72 -72l-895 895l-129 -127l-256 256l-55 -55l895 -897l-72 -72zM584 1280l57 -55l182 184l-55 55zM840 512l184 -184l184 184l-184 184zM952 1536l72 72l1096 -1096l-72 -72zM1464 1536l72 72l584 -584l-72 -72z" />
<glyph unicode="E" horiz-adv-x="512" d="M-72 0l127 129l-127 127l201 201l127 -129l256 256l72 -72l-256 -256l-199 -201l-57 -55l57 -55l199 -201l256 -256l-72 -72l-256 256l-127 -129l-201 201l127 127zM-72 512l584 584l72 -72l-584 -584zM-72 1024l584 584l72 -72l-584 -584zM184 0l201 201l199 -201 l-199 -201z" />
<glyph unicode="F" d="M-72 0l328 328l328 -328l-584 -584l-72 72l512 512l-184 184l-256 -256zM-72 512l127 129l-127 127l328 328l1096 -1096l-328 -328l-127 127l-385 -383l-72 72l383 383l-694 696l-129 -127zM-72 1024l328 328l1536 -1536l256 256l72 -72l-328 -328l-1536 1536l-256 -256z M72 768l57 -55l127 127l840 -840l-127 -129l55 -55l184 184l-952 952zM311 1409l201 199l72 -72l-127 -127l184 -184l383 383l72 -72l-455 -457zM696 1024l328 328l129 -127l383 383l72 -72l-383 -383l696 -696l127 127l72 -72l-127 -127l127 -129l-328 -328zM840 1024 l952 -952l184 184l-55 55l-129 -127l-840 840l127 129l-55 55zM952 -512l457 457l328 -330l-201 -199l-72 72l127 127l-182 184l-385 -383zM1464 1024l584 584l72 -72l-512 -512l184 -184l256 256l72 -72l-328 -328z" />
<glyph unicode="G" d="M-72 0l72 72l584 -584l-72 -72zM-72 512l72 72l1096 -1096l-72 -72zM-72 1024l584 584l72 -72l-584 -584zM184 768l840 840l72 -72l-768 -768l184 -184l768 768l713 -711l-72 -74l-641 641l-768 -768zM567 385l74 72l639 -641l768 768l72 -72l-840 -840zM823 385l129 127 l-129 129l74 72l199 -201l-199 -201zM952 256l256 256l-256 256l72 72l328 -328l-328 -328zM1079 129l385 383l-385 385l74 72l455 -457l-455 -457zM1208 0l512 512l-512 512l72 72l584 -584l-584 -584zM1464 -512l584 584l72 -72l-584 -584zM1464 1536l72 72l584 -584 l-72 -72z" />
<glyph unicode="H" horiz-adv-x="1024" d="M-72 0l328 328l328 -328l-584 -584l-72 72l512 512l-184 184l-256 -256zM-72 512l512 512l-184 184l-256 -256l-72 72l328 328l328 -328l-584 -584zM184 -512l512 512l-512 512l512 512l-512 512l72 72l584 -584l-512 -512l512 -512l-584 -584zM440 512l584 584l72 -72 l-512 -512l184 -184l256 256l72 -72l-328 -328zM440 -512l584 584l72 -72l-584 -584zM440 1536l72 72l256 -256l256 256l72 -72l-328 -328z" />
<glyph unicode="I" horiz-adv-x="512" d="M-72 0l584 584l72 -72l-584 -584zM-72 256l328 328l72 -72l-328 -328zM-72 -256l584 584l72 -72l-584 -584zM-72 512l512 512l-512 512l72 72l584 -584l-584 -584zM-72 -512l584 584l72 -72l-584 -584z" />
<glyph unicode="J" d="M-72 0l328 328l840 -840l-72 -72l-127 127l-129 -127l-512 512l-55 -57l383 -383l-72 -72zM-72 512l256 256l-55 55l-129 -127l-72 72l201 201l1479 -1481l-72 -72l-1280 1280l-256 -256zM-72 1024l328 328l1536 -1536l256 256l72 -72l-328 -328l-1536 1536l-256 -256z M72 0l57 -55l55 55l-55 55zM201 129l55 -57l55 57l-55 55zM328 0l440 -440l55 55l-438 440zM440 1536l72 72l129 -127l127 127l1024 -1024l256 256l72 -72l-256 -256l57 -55l127 127l72 -72l-328 -328zM713 1409l952 -952l55 55l-952 952zM952 1536l72 72l768 -768l184 184 l-512 512l72 72l584 -584l-328 -328zM1737 385l55 -57l55 57l-55 55z" />
<glyph unicode="K" d="M-72 0l256 256l-256 256l328 328l584 -584l-328 -328l-256 256l-256 -256zM-72 -512l328 328l72 -72l-328 -328zM-72 1024l584 584l72 -72l-584 -584zM72 512l184 -184l184 184l-55 55l-129 -127l-127 127zM311 897l74 72l328 -328l-72 -74zM440 -512l584 584l328 -328 l-328 -328l-256 256l-256 -256zM440 1024l584 584l72 -72l-383 -383l127 -129l-127 -127l696 -696l127 127l129 -127l383 383l72 -72l-584 -584l-383 383l-129 -127l-328 328l127 129zM567 -129l330 330l72 -72l-328 -330zM823 897l74 72l584 -584l-72 -74zM823 1153 l330 328l72 -72l-328 -330zM840 -256l184 -184l55 55l-127 129l127 127l-55 57zM952 1024l328 328l256 -256l512 512l72 -72l-512 -512l184 -184l256 256l72 -72l-584 -584zM1079 129l74 72l328 -330l-72 -72zM1352 768l184 -184l55 57l-127 127l127 129l-55 55zM1464 -512 l584 584l72 -72l-584 -584zM1591 385l330 328l72 -72l-328 -330z" />
<glyph unicode="L" horiz-adv-x="1024" d="M-72 0l256 256l-256 256l1096 1096l72 -72l-639 -639l127 -129l-256 -256l129 -127l-457 -457zM-72 -256l328 328l72 -72l-328 -328zM-72 -512l512 512l-129 129l256 256l-127 127l584 584l72 -72l-383 -383l256 -256l-969 -969zM-72 1024l584 584l72 -72l-584 -584z M72 512l184 -184l55 57l-182 182zM440 -512l584 584l72 -72l-584 -584zM567 897l330 328l72 -72l-328 -330zM584 512l184 -184l55 57l-182 182z" />
<glyph unicode="M" d="M-72 0l256 256l-256 256l72 72l328 -328l-256 -256l184 -184l256 256l328 -328l-328 -328l-72 72l256 256l-184 184l-184 -184l129 -129l-72 -72zM-72 -256l72 72l328 -328l-72 -72zM-72 1024l256 256l-129 129l74 72l455 -457l-383 -383l55 -57l385 385l256 -256 l512 512l455 -457l-256 -256l57 -55l256 256l199 -201l-328 -328l-457 457l256 256l-55 55l-895 -897l-201 201l383 385l-55 55l-383 -385l-330 330l385 383l-184 184l-256 -256zM184 1536l72 72l713 -711l-72 -74zM440 1536l72 72l256 -256l256 256l72 -72l-328 -328z M696 0l457 457l584 -586l-72 -72l-129 129l-512 -512l-72 72l127 127l-127 129l383 385l-55 55l-383 -385zM823 1153l330 328l127 -129l256 256l72 -72l-584 -584zM1208 512l72 72l840 -840l-72 -72zM1464 -512l328 328l328 -328l-72 -72l-256 256l-256 -256zM1591 1153 l457 455l72 -72l-256 -256l256 -256l-72 -72l-256 256l-127 -129zM1847 129l74 72l199 -201l-72 -72z" />
<glyph unicode="N" d="M-72 0l768 768l-55 55l-129 -127l-72 72l127 129l-311 311l-127 -129l-74 74l129 127l-256 256l72 72l512 -512l184 184l-184 184l-55 -55l127 -129l-72 -72l-201 201l201 199l129 -127l127 127l201 -199l-129 -129l184 -184l129 129l72 -72l-256 -256l127 -129l-72 -72 l-201 201l129 127l-184 184l-184 -184l440 -440l184 184l-129 129l201 199l201 -199l-129 -129l184 -184l129 129l72 -72l-256 -256l127 -129l-72 -72l-201 201l129 127l-184 184l-184 -184l129 -127l-201 -201l-72 72l127 129l-311 311l-311 -311l256 -256l-72 -74 l-256 256l-385 -383zM-72 256l127 129l-127 127l256 256l-256 256l72 72l129 -127l127 127l201 -199l-129 -129l129 -127l-72 -74l-129 129l-184 -184l129 -127l-201 -201zM-72 -256l72 72l201 -201l-72 -72zM55 -129l201 201l129 -127l55 55l-129 129l74 72l639 -641 l184 184l-129 127l201 201l201 -201l-457 -455l-383 383l-129 -127l-72 72l127 127l-55 57l-184 -184l129 -129l-72 -72zM201 -129l55 -55l55 55l-55 57zM201 897l55 -57l55 57l-55 55zM440 -512l201 201l72 -74l-201 -199zM567 385l201 199l201 -199l-129 -129l184 -184 l256 256l256 -256l184 184l-129 129l201 199l129 -127l55 55l-129 129l74 72l199 -201l-512 -512l512 -512l-72 -72l-256 256l-256 -256l-72 72l256 256l-55 55l-256 -256l-74 72l256 256l-311 313l-311 -313l127 -127l-72 -72l-201 199l129 129zM713 385l55 -57l55 57 l-55 55zM713 1409l55 -57l55 57l-55 55zM952 1280l127 129l-127 127l72 72l768 -768l256 256l72 -72l-127 -127l127 -129l-72 -72l-127 127l-129 -127l-127 127l-129 -127l-72 72l127 129l-438 438l-129 -127zM1225 -129l55 -55l55 55l-55 57zM1225 897l55 -57l55 57l-55 55 zM1335 1409l201 199l129 -127l127 127l201 -199l-129 -129l57 -55l127 127l72 -72l-199 -201l-385 385l-55 -55l256 -256l-72 -74zM1737 385l55 -57l55 57l-55 55zM1737 1409l55 -57l55 57l-55 55zM1847 129l201 199l72 -72l-199 -201zM1847 -129l201 201l72 -72l-127 -129 l127 -127l-72 -72z" />
<glyph unicode="O" horiz-adv-x="512" d="M-72 0l72 72l584 -584l-72 -72l-256 256l-127 -129l-201 201l127 127zM-72 512l584 584l72 -72l-512 -512l512 -512l-199 -201l-201 201l127 129zM-72 1024l584 584l72 -72l-584 -584z" />
<glyph unicode="P" d="M-72 0l328 328l328 -328l-127 -129l184 -182l127 127l328 -328l-72 -72l-256 256l-127 -129l-330 328l129 129l-184 184l-256 -256zM-72 512l328 328l328 -328l-127 -127l184 -184l127 127l328 -328l-127 -129l184 -182l127 127l328 -328l-72 -72l-256 256l-127 -129 l-330 328l129 129l-184 184l-127 -129l-330 330l129 127l-184 184l-256 -256zM-72 -512l328 328l328 -328l-72 -72l-256 256l-256 -256zM-72 1024l584 584l72 -72l-584 -584zM-72 1280l328 328l72 -72l-328 -328zM55 385l201 199l72 -72l-199 -201zM311 897l713 711l72 -72 l-639 -639l184 -184l127 127l328 -328l-127 -127l184 -184l127 127l328 -328l-127 -129l184 -182l127 127l328 -328l-72 -72l-256 256l-127 -129l-330 328l129 129l-184 184l-127 -129l-330 330l129 127l-184 184l-127 -129zM567 -129l201 201l72 -72l-199 -201zM567 897 l713 711l72 -72l-711 -713zM823 897l713 711l72 -72l-639 -639l184 -184l127 127l328 -328l-127 -127l184 -184l127 127l328 -328l-72 -72l-256 256l-127 -129l-330 330l129 127l-184 184l-127 -129zM1079 385l201 199l72 -72l-199 -201zM1335 897l457 455l328 -328l-72 -72 l-256 256l-383 -385zM1591 -129l201 201l72 -72l-199 -201zM1591 641l201 199l328 -328l-72 -72l-256 256l-127 -129z" />
<glyph unicode="Q" d="M-72 0l256 256l-256 256l72 72l328 -328l-256 -256l512 -512l-72 -72zM-72 768l328 328l129 -127l55 55l-512 512l72 72l584 -584l-127 -127l127 -129l-127 -127l311 -313l129 129l72 -72l-129 -129l768 -768l-72 -72l-512 512l-127 -129l-74 72l129 129l-184 184 l-55 -55l127 -129l-127 -129l383 -383l-72 -72l-256 256l-127 -129l-74 72l129 129l-55 55l-129 -127l-328 328l328 328l129 -127l55 55l-184 184l-127 -129l-74 74l129 127l-55 55l-129 -127zM72 768l184 -184l184 184l-184 184zM440 1536l72 72l385 -383l127 127l328 -328 l-127 -127l55 -57l184 184l-512 512l72 72l584 -584l-512 -512l57 -55l127 127l328 -328l-328 -328l-328 328l127 129l-311 311l-127 -129l-74 74l129 127l-129 129l74 72l127 -129l55 57l-127 127l127 129zM840 768l184 -184l184 184l-55 55l-129 -127l-127 127zM1096 256 l184 -184l184 184l-184 184zM1335 641l74 72l455 -457l-256 -256l512 -512l-72 -72l-584 584l256 256zM1464 1536l72 72l584 -584l-256 -256l256 -256l-72 -72l-328 328l256 256z" />
<glyph unicode="R" horiz-adv-x="1024" d="M-72 0l768 768l-55 55l-256 -256l-74 74l385 383l-385 385l74 72l383 -385l55 57l-383 383l72 72l584 -584l-512 -512l57 -55l256 256l72 -72l-385 -385l385 -385l-72 -72l-385 385l-383 -385l-74 72l256 258l-55 55l-256 -256zM-72 512l512 512l-512 512l72 72l584 -584 l-584 -584zM-72 -512l584 584l584 -584l-72 -72l-512 512l-512 -512zM696 256l328 328l72 -72l-256 -256l256 -256l-72 -72z" />
<glyph unicode="S" horiz-adv-x="1024" d="M-72 0l72 72l584 -584l-72 -72zM-72 -256l72 72l328 -328l-72 -72zM-72 512l72 72l512 -512l440 440l-512 512l72 72l584 -584l-512 -512l512 -512l-72 -72zM-72 768l72 72l457 -455l-72 -74zM-72 1024l584 584l584 -584l-72 -72l-512 512l-440 -440l512 -512l-72 -72z M-72 1280l328 328l72 -72l-328 -328zM184 1024l328 328l72 -72l-328 -328zM311 897l74 72l328 -328l-72 -74zM440 256l328 328l72 -72l-328 -328zM567 1153l74 72l455 -457l-72 -72zM696 0l328 328l72 -72l-256 -256l256 -256l-72 -72z" />
<glyph unicode="T" horiz-adv-x="1024" d="M-72 0l256 256l-256 256l72 72l457 -455l-457 -457l-72 72l127 127zM-72 -512l1096 1096l72 -72l-1096 -1096zM-72 1024l72 72l512 -512l184 184l-768 768l72 72l512 -512l55 57l-256 256l74 72l584 -584l-457 -457zM440 -512l584 584l72 -72l-584 -584zM440 1536l72 72 l584 -584l-72 -72zM823 -385l201 201l72 -72l-199 -201z" />
<glyph unicode="U" horiz-adv-x="512" d="M-72 0l584 584l72 -72l-512 -512l512 -512l-72 -72zM-72 256l328 328l72 -72l-328 -328zM-72 -256l72 72l328 -328l-72 -72zM-72 512l512 512l-512 512l72 72l584 -584l-584 -584zM184 0l328 328l72 -72l-256 -256l256 -256l-72 -72z" />
<glyph unicode="V" d="M-72 0l127 129l-127 127l72 72l129 -127l55 55l-256 256l72 72l328 -328l-328 -328zM-72 -256l512 512l-512 512l72 72l584 -584l-584 -584zM-72 -512l768 768l-768 768l72 72l256 -256l311 313l-383 383l72 72l768 -768l440 440l-256 256l72 72l328 -328l-584 -584 l-383 383l-313 -311l512 -512l-840 -840zM-72 1536l72 72l457 -455l-72 -74zM184 -512l584 584l584 -584l-72 -72l-512 512l-512 -512zM440 -512l328 328l328 -328l-72 -72l-256 256l-55 -57l127 -127l-72 -72l-127 127l-129 -127zM440 1536l72 72l512 -512l55 57l-383 383 l72 72l385 -383l55 55l-256 256l72 72l328 -328l-328 -328zM567 897l74 72l383 -385l696 696l-256 256l72 72l584 -584l-72 -72l-256 256l-696 -696l1024 -1024l-72 -72zM823 129l74 72l711 -713l-72 -72zM1208 512l584 584l328 -328l-72 -72l-256 256l-440 -440l768 -768 l-72 -72zM1464 512l328 328l328 -328l-72 -72l-256 256l-55 -55l383 -385l-72 -72l-383 383l-57 -55l512 -512l-72 -72z" />
<glyph unicode="W" d="M-72 0l383 385l-256 256l129 127l-256 256l72 72l584 -584l-512 -512l57 -55l127 127l328 -328l-127 -129l55 -55l184 184l-129 127l201 201l328 -328l-127 -129l55 -55l184 184l-129 127l201 201l328 -328l-199 -201l-129 129l-256 -256l-256 256l-256 -256zM-72 512 l72 72l201 -199l-72 -74zM-72 1280l72 72l641 -639l55 55l-768 768l72 72l1409 -1407l182 184l-55 55l-127 -129l-330 330l969 967l72 -72l-768 -768l440 -440l256 256l72 -72l-584 -584l-256 256l-256 -256l-256 256l-256 -256l-201 201l330 328l256 -256l182 184l-55 55 l-127 -129zM440 1536l72 72l512 -512l512 512l72 -72l-584 -584zM696 1536l72 72l256 -256l256 256l72 -72l-328 -328zM1464 -512l584 584l72 -72l-584 -584zM1464 768l584 584l72 -72l-512 -512l184 -184l256 256l72 -72l-328 -328zM1591 -129l457 457l72 -72l-455 -457z M1720 768l328 328l72 -72l-328 -328z" />
<glyph unicode="X" d="M-72 0l127 129l-127 127l72 72l129 -127l55 55l-129 129l74 72l328 -328l-72 -74l-129 129l-55 -55l127 -129l-72 -72l-127 127l-57 -55l184 -184l129 129l72 -74l-328 -328l-74 72l129 129zM-72 1024l127 129l-127 127l72 72l129 -127l55 55l-256 256l72 72l256 -256 l55 57l-127 127l72 72l129 -127l127 127l201 -199l-72 -74l-129 129l-55 -55l127 -129l-72 -72l-127 127l-57 -55l184 -184l385 385l72 -72l-129 -129l57 -55l127 127l72 -72l-127 -127l55 -57l129 129l72 -72l-129 -129l57 -55l127 127l72 -72l-127 -127l55 -57l129 129 l72 -72l-328 -330l-74 74l129 127l-55 55l-129 -127l-72 72l127 129l-55 55l-184 -184l129 -127l-72 -74l-129 129l-55 -55l127 -129l-72 -72l-127 127l-57 -55l184 -184l129 129l72 -72l-328 -330l-74 74l129 127l-184 184l-55 -55l127 -129l-72 -72l-328 328l72 72 l129 -127l55 55l-184 184l-127 -129l-74 74l330 328l72 -72l-129 -129l184 -184l55 57l-127 127l72 72l129 -127l55 55l-129 129l74 72l127 -129l184 184l-55 55l-129 -127l-72 72l127 129l-55 55l-256 -256l-256 256l-55 -55l127 -129l-72 -72l-127 127l-57 -55l129 -127 l-72 -74zM311 -385l74 74l127 -129l55 55l-127 129l72 72l129 -127l55 55l-256 256l72 72l256 -256l184 184l-55 55l-129 -127l-72 72l328 328l72 -72l-127 -127l55 -57l184 184l-256 256l72 72l256 -256l55 57l-127 127l72 72l129 -127l55 55l-129 129l74 72l127 -129 l55 57l-127 127l72 72l328 -328l-72 -72l-127 127l-57 -55l129 -127l-72 -74l-129 129l-55 -55l127 -129l-72 -72l-127 127l-57 -55l256 -256l-256 -256l57 -55l127 127l72 -72l-127 -129l55 -55l184 184l-129 127l74 74l127 -129l55 55l-127 129l72 72l129 -127l55 55 l-184 184l-127 -129l-74 74l330 328l72 -72l-129 -129l256 -256l-127 -129l127 -127l-72 -72l-127 127l-57 -55l129 -129l-72 -72l-129 129l-256 -256l-127 127l-129 -127l-72 72l127 127l-55 57l-127 -129l-74 72l385 385l-184 184l-184 -184l57 -55l127 127l72 -72 l-328 -328l-72 72l127 127l-55 57l-184 -184l256 -256l-72 -72l-256 256l-55 -57l127 -127l-72 -72l-127 127l-129 -127zM1079 1409l74 72l127 -129l256 256l129 -127l127 127l72 -72l-127 -127l55 -57l129 129l72 -72l-328 -330l-74 74l129 127l-55 55l-129 -127l-72 72 l127 129l-55 55l-184 -184l440 -440l55 57l-127 127l72 72l129 -127l55 55l-129 129l74 72l199 -201l-127 -127l127 -129l-72 -72l-127 127l-57 -55l256 -256l-72 -72z" />
<glyph unicode="Y" horiz-adv-x="512" d="M-72 0l127 129l-127 127l127 129l-127 127l72 72l328 -328l-328 -328zM-72 -256l201 201l127 -129l55 55l-127 129l201 201l199 -201l-584 -584l-72 72l127 127zM-72 1024l584 584l72 -72l-584 -584zM72 256l57 -55l55 55l-55 55zM72 -256l57 -55l55 55l-55 55zM184 768 l328 328l72 -72l-256 -256l256 -256l-72 -72zM328 0l57 -55l55 55l-55 55z" />
<glyph unicode="Z" d="M-72 -256l256 256l-256 256l72 72l328 -328l-328 -328zM-72 -512l512 512l-512 512l72 72l256 -256l696 696l-385 385l74 72l455 -457l-768 -768l256 -256l-584 -584zM184 768l256 256l-256 256l328 328l72 -72l-256 -256l256 -256l-328 -328zM311 641l385 383l-256 256 l72 72l328 -328l-455 -457zM440 -512l512 512l-256 256l768 768l-512 512l72 72l256 -256l256 256l72 -72l-256 -256l256 -256l-768 -768l256 -256l-256 -256l256 -256l-72 -72l-256 256l-256 -256zM696 1536l72 72l457 -455l-72 -74zM952 -256l256 256l-256 256l768 768 l-129 129l74 72l199 -201l-768 -768l256 -256l-328 -328zM1079 -385l385 385l-256 256l768 768l-256 256l72 72l328 -328l-256 -256l256 -256l-72 -72l-256 256l-440 -440l256 -256l-455 -457zM1208 -512l512 512l-256 256l328 328l328 -328l-72 -72l-256 256l-184 -184 l256 -256l-584 -584zM1464 -512l512 512l-256 256l72 72l328 -328l-256 -256l256 -256l-72 -72l-256 256l-256 -256z" />
<glyph unicode="[" horiz-adv-x="512" d="M-72 0l512 512l-385 385l330 328l199 -201l-256 -256l256 -256l-584 -584zM-72 256l256 256l-256 256l72 72l328 -328l-328 -328zM-72 1024l584 584l72 -72l-584 -584zM55 -129l330 330l199 -201l-256 -256l256 -256l-72 -72z" />
<glyph unicode="\" horiz-adv-x="1024" d="M-72 0l72 72l584 -584l-72 -72zM-72 512l127 129l-127 127l127 129l-127 127l72 72l127 -127l184 184l-383 383l72 72l383 -383l129 127l584 -584l-127 -127l127 -129l-256 -256l256 -256l-72 -72l-256 256l-184 -184l512 -512l-72 -72zM72 512l440 -440l440 440l-57 55 l-383 -383l-385 383zM72 768l55 -55l57 55l-57 55zM201 641l311 -313l311 313l-311 311zM201 897l55 -57l184 184l-57 55zM311 641l201 199l201 -199l-201 -201zM440 1536l72 72l584 -584l-72 -72zM457 1153l438 -440l57 55l-440 440z" />
<glyph unicode="]" horiz-adv-x="512" d="M-72 256l72 72l328 -328l-72 -72zM-72 -256l201 201l72 -74l-201 -199zM-72 512l584 584l72 -72l-512 -512l385 -383l-72 -74zM-72 -512l584 584l72 -72l-584 -584zM-72 768l457 457l72 -72l-457 -457zM-72 1280l72 72l201 -199l-72 -74zM-72 1536l72 72l328 -328 l-72 -72zM184 512l328 328l72 -72l-328 -328zM184 1536l72 72l328 -328l-72 -72zM311 385l201 199l72 -72l-199 -201zM311 -385l201 201l72 -72l-199 -201z" />
<glyph unicode="^" d="M-72 0l72 72l256 -256l184 184l-129 129l586 584l1223 -1225l-72 -72l-639 639l-129 -127l-328 328l72 72l129 -127l55 55l-184 184l-1024 -1024l-72 72l256 256zM-72 512l256 256l-256 256l72 72l256 -256l768 768l969 -967l-201 -201l-840 840l72 72l641 -639l55 55 l-696 696l-1024 -1024zM55 385l842 840l895 -897l256 256l72 -72l-256 -256l256 -256l-72 -72l-383 383l-129 -127l-584 584l72 72l385 -383l55 55l-440 440l-768 -768zM184 1280l328 328l72 -72l-328 -328zM440 -512l256 256l-129 127l330 330l711 -713l-72 -72l-512 512 l-512 -512zM823 -385l201 201l72 -72l-199 -201zM1464 1536l72 72l584 -584l-72 -72z" />
<glyph unicode="_" horiz-adv-x="512" d="M-72 256l201 201l127 -129l256 256l72 -72l-256 -256l256 -256l-127 -129l127 -127l-328 -328l-127 127l-129 -127l-72 72l256 256l-129 127l129 129zM-72 512l256 256l-129 129l129 127l-256 256l201 201l127 -129l256 256l72 -72l-256 -256l256 -256l-127 -127 l127 -129l-328 -328l-127 127l-129 -127zM72 256l184 -184l55 57l-182 182zM72 1280l184 -184l55 57l-182 182zM201 -129l55 -55l184 184l-55 55zM201 -385l55 -55l184 184l-55 55zM201 641l55 -57l184 184l-55 55zM201 897l55 -57l184 184l-55 55z" />
<glyph unicode="`" horiz-adv-x="512" d="M-72 0l72 72l129 -127l199 -201l256 -256l-72 -72l-256 256l-127 -129l-201 201l127 127zM-72 256l127 129l-127 127l72 72l129 -127l199 -201l57 -55l199 -201l-72 -72l-127 -129l-201 201l127 129l-55 55l-127 -129zM-72 1024l72 72l256 -256l256 256l72 -72l-328 -328 zM-72 1536l72 72l256 -256l256 256l72 -72l-328 -328z" />
<glyph unicode="a" horiz-adv-x="512" d="M-72 0l72 72l584 -584l-72 -72zM-72 256l72 72l584 -584l-72 -72zM-72 512l72 72l584 -584l-72 -72zM-72 1024l72 72l584 -584l-72 -72zM-72 1536l72 72l584 -584l-72 -72zM184 512l72 72l328 -328l-72 -72z" />
<glyph unicode="b" d="M-72 0l584 584l1024 -1024l440 440l-184 184l-127 -129l-201 201l127 129l-311 311l-127 -129l-201 201l328 328l713 -711l-129 -129l256 -256l-584 -584l-256 256l-127 -129l-713 713l127 129l-55 55l-512 -512zM-72 512l256 256l-256 256l72 72l328 -328l-328 -328z M-72 -512l584 584l584 -584l-72 -72l-512 512l-512 -512zM-72 1536l72 72l768 -768l768 768l72 -72l-768 -768l897 -897l-72 -72l-129 129l-127 -129l-201 201l127 129l-311 311l-127 -129l-201 201l127 129zM440 1536l72 72l256 -256l256 256l72 -72l-328 -328zM1464 1024 l584 584l72 -72l-512 -512l512 -512l-72 -72z" />
<glyph unicode="c" d="M-72 0l72 72l584 -584l-72 -72zM-72 256l457 457l72 -72l-385 -385l696 -696l256 256l72 -72l-328 -328zM-72 512l256 256l-256 256l72 72l328 -328l-328 -328zM-72 1536l72 72l840 -840l-512 -512l440 -440l256 256l328 -328l-328 -328l-72 72l256 256l-184 184 l-256 -256l-584 584l512 512zM440 256l840 840l328 -328l-383 -383l567 -569l256 256l72 -72l-584 -584l-201 199l74 74l127 -129l184 184l-567 567l-385 -383zM440 1536l72 72l201 -199l-72 -74zM584 256l184 -184l696 696l-184 184zM696 256l584 584l72 -72l-584 -584z M696 1280l328 328l72 -72l-256 -256l184 -184l256 256l584 -584l-256 -256l184 -184l256 256l72 -72l-256 -256l129 -127l-72 -74l-457 457l256 256l-440 440l-256 -256zM952 1280l328 328l840 -840l-328 -328l-72 72l256 256l-696 696l-256 -256zM1464 1536l72 72l584 -584 l-72 -72zM1847 -385l74 74l199 -201l-72 -72z" />
<glyph unicode="d" d="M-72 0l72 72l328 -328l-328 -328l-72 72l256 256zM-72 512l1096 1096l72 -72l-1096 -1096zM-72 1024l584 584l72 -72l-584 -584zM55 385l330 328l127 -129l1024 1024l72 -72l-1024 -1024l129 -127l-256 -256l55 -57l385 385l840 -842l-201 -199l-72 72l127 127l-694 696 l-385 -383zM201 385l184 -184l182 184l-182 182zM440 -512l383 383l-127 129l201 201l455 -457l-328 -328l-72 72l256 256l-55 55l-129 -127l-127 127l-385 -383zM823 641l201 199l129 -127l895 895l72 -72l-895 -895l127 -129l-127 -127l55 -57l768 768l72 -72l-840 -840z M840 0l184 -184l55 55l-182 184zM969 641l184 -184l55 55l-184 184zM1335 129l330 328l127 -129l256 256l72 -72l-256 -256l129 -127l-256 -258l55 -55l256 256l72 -72l-328 -328zM1481 129l184 -184l182 184l-182 182z" />
<glyph unicode="e" horiz-adv-x="512" d="M-72 -256l201 201l127 -129l55 55l-127 129l127 129l-55 55l-127 -129l-201 201l127 129l-127 127l72 72l129 -127l199 -201l57 -55l199 -201l-199 -201l-57 -55l-199 -201l-129 -127l-72 72l127 127zM-72 1024l72 72l584 -584l-72 -72zM-72 1536l72 72l584 -584l-72 -72 z" />
<glyph unicode="f" d="M-72 0l72 72l129 -127l182 184l-383 383l72 72l457 -455l-328 -330zM-72 1024l72 72l385 -383l694 696l-127 127l72 72l328 -328l-127 -127l127 -129l-584 -584l-127 127l-129 -127zM-72 1536l72 72l512 -512l184 184l-256 256l72 72l328 -328l-328 -328zM184 -256 l1280 1280l-129 129l256 256l-127 127l72 72l328 -328l-1280 -1280l129 -129l-256 -256l127 -127l-72 -72zM328 -256l57 -55l182 182l-55 57zM457 641l55 -57l696 696l-55 55zM696 0l584 584l129 -127l127 127l584 -584l-72 -72l-383 383l-696 -696l127 -127l-72 -72 l-328 328l127 127zM840 0l57 -55l438 440l-55 55zM1208 -256l328 328l584 -584l-72 -72l-512 512l-184 -184l256 -256l-72 -72zM1591 897l330 328l199 -201l-72 -72l-127 127l-184 -182l383 -385l-72 -72z" />
<glyph unicode="g" d="M-72 0l72 72l584 -584l-72 -72zM-72 512l1096 1096l72 -72l-1096 -1096zM-72 1024l584 584l72 -72l-584 -584zM184 256l713 713l72 -72l-641 -641l768 -768l-72 -72zM440 256l584 584l72 -72l-512 -512l512 -512l-72 -72zM696 256l457 457l72 -72l-385 -385l385 -385 l-72 -72zM952 256l328 328l72 -72l-256 -256l256 -256l-72 -72zM952 1024l328 328l840 -840l-72 -72l-768 768l-184 -184l768 -768l-711 -713l-74 72l641 641zM1208 256l201 201l72 -72l-129 -129l129 -127l-72 -74zM1464 -512l584 584l72 -72l-584 -584zM1464 1536l72 72 l584 -584l-72 -72z" />
<glyph unicode="h" horiz-adv-x="1024" d="M-72 0l72 72l256 -256l184 184l-512 512l72 72l584 -584l-328 -328zM-72 -256l72 72l256 -256l512 512l328 -328l-72 -72l-256 256l-512 -512zM-72 768l72 72l256 -256l512 512l328 -328l-72 -72l-256 256l-512 -512zM-72 1024l72 72l256 -256l184 184l-512 512l72 72 l584 -584l-328 -328zM440 512l328 328l328 -328l-72 -72l-256 256l-184 -184l512 -512l-72 -72zM440 -512l328 328l328 -328l-72 -72l-256 256l-256 -256zM440 1536l72 72l584 -584l-72 -72z" />
<glyph unicode="i" horiz-adv-x="512" d="M-72 0l72 72l584 -584l-72 -72zM-72 256l72 72l584 -584l-72 -72zM-72 512l72 72l584 -584l-72 -72zM-72 1024l584 584l72 -72l-512 -512l512 -512l-72 -72zM184 512l72 72l328 -328l-72 -72z" />
<glyph unicode="j" d="M-72 0l1280 1280l-256 256l72 72l256 -256l55 57l-127 127l72 72l201 -199l-1481 -1481zM-72 512l127 129l-127 127l512 512l-55 55l-385 -383l-72 72l584 584l328 -328l-840 -840zM72 768l57 -55l438 440l-55 55zM184 -256l1536 1536l-256 256l72 72l328 -328 l-1536 -1536l256 -256l-72 -72zM457 1409l55 -57l55 57l-55 55zM584 1280l57 -55l55 55l-55 55zM696 -256l1352 1352l72 -72l-127 -127l127 -129l-1024 -1024l256 -256l-72 -72l-256 256l-55 -57l127 -127l-72 -72zM840 -256l57 -55l55 55l-55 55zM969 -129l55 -55l952 952 l-55 55zM1208 -256l840 840l72 -72l-768 -768l184 -184l512 512l72 -72l-584 -584z" />
<glyph unicode="k" d="M-72 0l72 72l584 -584l-72 -72zM-72 -256l72 72l328 -328l-72 -72zM-72 512l72 72l256 -256l184 184l-55 55l-129 -127l-201 201l129 127l-256 256l127 129l-127 127l72 72l328 -328l-127 -127l383 -385l-328 -328zM-72 1536l72 72l457 -455l-72 -74zM311 897l74 72 l328 -328l-72 -74zM311 1409l201 199l201 -199l-129 -129l313 -311l311 311l-256 256l72 72l328 -328l-584 -584l-328 328l72 72l256 -256l55 57zM440 0l1096 1096l584 -584l-72 -72l-512 512l-952 -952l512 -512l-72 -72zM696 1280l201 201l199 -201l-199 -201zM823 -129 l842 842l328 -328l-385 -385l512 -512l-72 -72l-584 584l256 256l-129 129l129 127l-55 55l-768 -768zM952 -256l201 201l199 -201l-199 -201zM1208 0l328 328l72 -72l-256 -256l129 -129l-72 -72zM1335 -385l201 201l201 -201l-201 -199zM1464 1536l72 72l584 -584l-72 -72 zM1720 0l201 201l199 -201l-199 -201zM1720 1536l72 72l328 -328l-72 -72z" />
<glyph unicode="l" horiz-adv-x="1024" d="M-72 0l72 72l584 -584l-72 -72zM-72 1024l72 72l385 -383l55 55l-385 385l74 72l584 -584l-385 -385l768 -768l-72 -72l-969 969l256 256zM-72 1536l72 72l1096 -1096l-256 -256l256 -256l-72 -72l-256 256l-55 -55l383 -385l-72 -72l-584 584l383 385zM201 385l55 -57 l184 184l-55 55zM440 1536l72 72l584 -584l-72 -72zM713 385l55 -57l184 184l-55 55z" />
<glyph unicode="m" d="M-72 0l72 72l256 -256l129 129l72 -74l-457 -455l-72 72l256 256zM-72 512l72 72l129 -127l127 127l385 -383l55 55l-385 385l201 199l457 -455l-457 -457zM-72 1024l72 72l256 -256l184 184l-184 184l-127 -129l-74 74l457 455l256 -256l256 256l72 -72l-328 -328 l-256 256l-184 -184l256 -256l-328 -328zM-72 1280l328 328l72 -72l-328 -328zM184 -512l840 840l72 -72l-840 -840zM567 -385l586 586l256 -256l55 55l-897 897l201 199l385 -383l55 55l-385 385l330 328l383 -385l184 184l-256 256l72 72l256 -256l129 129l72 -72 l-457 -457l-383 383l-57 -55l385 -383l-256 -256l512 -512l-457 -457l-256 256l-55 -57l256 -256l-201 -199l-256 256l-127 -129zM1335 641l713 711l72 -72l-711 -713zM1464 512l201 201l328 -328l-129 -129l256 -256l-72 -72zM1464 -512l328 328l328 -328l-72 -72l-256 256 l-256 -256zM1720 768l328 328l72 -72l-256 -256l256 -256l-72 -72z" />
<glyph unicode="n" d="M-72 0l328 328l256 -256l184 184l-129 129l201 199l129 -127l55 55l-256 256l256 256l-129 129l201 199l72 -72l-127 -127l127 -129l-127 -127l256 -256l-72 -74l-256 256l-57 -55l385 -383l-201 -201l-72 72l127 129l-55 55l-184 -184l313 -311l127 127l201 -201 l-129 -127l57 -55l127 127l72 -72l-127 -129l127 -127l-72 -72l-256 256l-127 -129l-74 72l129 129l-440 440l-184 -184l129 -129l-328 -328l-74 72l256 256l-55 57l-512 -512l-72 72l256 256l-129 127l201 201l129 -127l55 55l-184 184l-256 -256zM-72 256l127 129 l-127 127l256 256l-129 129l201 199l129 -127l311 311l-184 184l-55 -55l127 -129l-72 -72l-201 201l201 199l129 -127l127 127l201 -199l-385 -385l129 -127l-201 -201l-72 72l127 129l-55 55l-184 -184l184 -184l129 129l72 -72l-256 -256l127 -129l-72 -72l-201 201 l129 127l-184 184l-184 -184l129 -127l-201 -201zM-72 1024l256 256l-129 129l74 72l328 -328l-72 -74l-129 129l-256 -256zM201 -129l55 -55l55 55l-55 57zM201 897l55 -57l55 57l-55 55zM440 -512l457 457l199 -201l-72 -72l-127 127l-57 -55l256 -256l-72 -72l-256 256 l-256 -256zM713 385l55 -57l55 57l-55 55zM713 1409l55 -57l55 57l-55 55zM952 1536l72 72l512 -512l184 184l-129 129l201 199l129 -127l127 127l72 -72l-256 -256l57 -55l127 127l72 -72l-127 -127l127 -129l-127 -127l127 -129l-72 -72l-201 201l129 127l-184 184 l-184 -184l129 -127l-201 -201l-72 72l127 129l-55 55l-184 -184l256 -256l-127 -127l127 -129l-72 -72l-127 127l-256 -256l-74 74l385 383l-385 385l201 199l129 -127l55 55l-184 184l-127 -129l-74 74l129 127zM1225 -129l55 -55l55 55l-55 57zM1225 897l55 -57l55 57 l-55 55zM1335 129l74 72l127 -129l184 184l-129 129l201 199l129 -127l55 55l-184 184l-127 -129l-74 74l201 199l328 -328l-512 -512l385 -385l-72 -72l-129 129l-127 -129l-74 72l129 129zM1335 1409l201 199l72 -72l-127 -127l127 -129l-72 -72zM1737 385l55 -57l55 57 l-55 55zM1737 1409l55 -57l55 57l-55 55zM1847 129l201 199l72 -72l-199 -201zM1847 -129l201 201l72 -72l-127 -129l127 -127l-72 -72z" />
<glyph unicode="o" horiz-adv-x="512" d="M-72 0l127 129l-127 127l201 201l127 -129l184 184l-512 512l72 72l584 -584l-584 -584zM-72 -512l383 383l-127 129l201 201l199 -201l-584 -584zM-72 1536l72 72l584 -584l-72 -72z" />
<glyph unicode="p" d="M-72 0l256 256l-129 129l330 328l127 -129l184 184l-129 129l330 328l127 -129l184 184l-256 256l72 72l328 -328l-328 -328l-127 127l-184 -182l127 -129l-328 -328l-127 127l-184 -182l127 -129l-328 -328zM-72 512l256 256l-129 129l330 328l127 -129l184 184 l-256 256l72 72l328 -328l-328 -328l-127 127l-184 -182l127 -129l-328 -328zM-72 -512l256 256l-129 127l330 330l127 -129l184 184l-129 129l330 328l127 -129l184 184l-129 129l330 328l711 -713l-72 -72l-639 639l-184 -182l127 -129l-328 -328l-127 127l-184 -182 l127 -129l-328 -328l-127 127l-184 -184l127 -127l-328 -328zM-72 1024l256 256l-256 256l72 72l328 -328l-328 -328zM311 -129l74 74l199 -201l-72 -72zM311 897l74 72l199 -201l-72 -72zM440 -512l256 256l-129 127l330 330l127 -129l184 184l-129 129l330 328l711 -713 l-72 -72l-639 639l-184 -182l127 -129l-328 -328l-127 127l-184 -184l127 -127l-328 -328zM823 385l74 72l199 -201l-72 -72zM823 1409l74 72l199 -201l-72 -72zM952 -512l256 256l-129 127l74 74l199 -201l-328 -328zM1335 129l74 72l455 -457l-328 -328l-72 72l256 256z M1335 897l74 72l711 -713l-72 -72zM1464 1536l72 72l584 -584l-72 -72zM1720 1536l72 72l328 -328l-72 -72z" />
<glyph unicode="q" d="M-72 0l512 512l-129 129l74 72l127 -129l184 184l-55 55l-129 -127l-127 127l-385 -383l-72 72l256 256l-129 129l74 72l127 -129l55 57l-127 127l328 328l328 -328l-127 -127l55 -57l184 184l-129 129l74 72l127 -129l55 57l-127 127l328 328l328 -328l-127 -127l55 -57 l512 512l72 -72l-584 -584l-127 127l-129 -127l-127 127l-313 -311l129 -127l-72 -74l-129 129l-768 -768zM-72 -512l584 584l256 -256l385 385l72 -72l-457 -457l-256 256l-512 -512zM-72 1024l584 584l256 -256l256 256l72 -72l-328 -328l-256 256l-512 -512zM328 1024 l184 -184l184 184l-184 184zM440 256l328 328l129 -127l311 311l-129 129l74 72l127 -129l129 129l72 -72l-129 -129l57 -55l127 127l129 -127l383 383l72 -72l-383 -383l127 -129l-328 -328l-127 127l-57 -55l184 -184l512 512l72 -72l-584 -584l-512 512l-55 -55l127 -129 l-328 -328zM952 -512l328 328l256 -256l512 512l72 -72l-584 -584l-256 256l-256 -256zM1096 512l184 -184l55 57l-127 127l127 129l-55 55zM1352 512l184 -184l184 184l-184 184z" />
<glyph unicode="r" horiz-adv-x="1024" d="M-72 -512l512 512l-512 512l72 72l584 -584l-584 -584zM-72 1024l72 72l256 -256l55 57l-256 256l74 72l383 -385l385 385l72 -72l-385 -385l385 -383l-72 -74l-256 256l-57 -55l512 -512l-584 -584l-72 72l383 383l-55 57l-383 -385l-74 72l385 385l-385 385l74 72 l256 -256l55 55zM-72 1536l72 72l512 -512l512 512l72 -72l-584 -584zM696 768l328 328l72 -72l-256 -256l256 -256l-72 -72z" />
<glyph unicode="s" horiz-adv-x="1024" d="M-72 0l584 584l72 -72l-512 -512l440 -440l512 512l72 -72l-584 -584zM-72 256l457 457l72 -72l-457 -457zM-72 -256l72 72l328 -328l-72 -72zM-72 512l1096 1096l72 -72l-512 -512l512 -512l-584 -584l-72 72l512 512l-440 440l-512 -512zM-72 1024l584 584l72 -72 l-584 -584zM-72 1280l328 328l72 -72l-328 -328zM184 0l72 72l328 -328l-72 -72zM311 129l330 328l72 -72l-328 -330zM440 768l72 72l328 -328l-72 -72zM567 -129l457 457l72 -72l-455 -457zM696 1024l328 328l72 -72l-256 -256l256 -256l-72 -72z" />
<glyph unicode="t" horiz-adv-x="1024" d="M-72 0l584 584l328 -328l-840 -840l-72 72l512 512l-184 184l-256 -256zM-72 512l127 129l-127 127l72 72l129 -127l55 55l-256 256l72 72l328 -328l-328 -328zM-72 1536l72 72l256 -256l256 256l584 -584l-72 -72l-256 256l-55 -55l383 -385l-72 -72l-383 383l-57 -55 l512 -512l-72 -72zM440 -512l584 584l72 -72l-584 -584z" />
<glyph unicode="u" horiz-adv-x="512" d="M-72 -256l256 256l-256 256l72 72l328 -328l-328 -328zM-72 -512l512 512l-512 512l72 72l584 -584l-584 -584zM-72 1024l584 584l72 -72l-512 -512l512 -512l-72 -72zM184 512l72 72l328 -328l-72 -72zM184 -512l328 328l72 -72l-328 -328z" />
<glyph unicode="v" d="M-72 0l512 512l-55 55l-385 -383l-72 72l383 385l-55 55l-256 -256l-72 72l328 328l328 -328l-584 -584zM-72 -256l768 768l-440 440l-256 -256l-72 72l328 328l584 -584l-383 -383l311 -313l512 512l840 -840l-72 -72l-768 768l-768 -768l-72 72l256 256l-311 311 l-385 -383zM-72 -512l457 457l72 -74l-457 -455zM-72 1024l584 584l72 -72l-256 -256l696 -696l1024 1024l72 -72l-1479 -1481l-74 74l385 383l-696 696l-256 -256zM440 1280l328 328l72 -72l-256 -256l440 -440l768 768l72 -72l-840 -840zM696 -512l584 584l584 -584 l-72 -72l-512 512l-512 -512zM696 1280l328 328l72 -72l-256 -256l57 -55l383 383l72 -72l-383 -383l55 -57l512 512l72 -72l-584 -584zM952 -512l328 328l328 -328l-72 -72l-127 127l-129 -127l-72 72l127 127l-55 57l-256 -256zM1335 385l713 711l72 -72l-711 -713z M1464 256l584 584l72 -72l-512 -512l512 -512l-72 -72zM1720 256l328 328l72 -72l-256 -256l57 -55l127 127l72 -72l-127 -127l127 -129l-72 -72z" />
<glyph unicode="w" d="M-72 0l256 256l-129 129l256 256l-383 383l584 584l256 -256l256 256l256 -256l129 129l199 -201l-328 -328l-201 201l129 127l-184 184l-55 -55l127 -129l-328 -328l-201 201l129 127l-184 184l-55 -55l127 -129l-328 -328l-127 127l-57 -55l512 -512l-584 -584z M-72 -512l256 256l-129 127l842 842l127 -129l55 57l-182 182l-256 -256l-330 330l201 199l256 -256l256 256l256 -256l256 256l584 -584l-72 -72l-256 256l-440 -440l768 -768l-72 -72l-895 895l-897 -895l-72 72l1225 1225l127 -129l55 57l-182 182l-1409 -1407zM-72 512 l127 129l-127 127l72 72l201 -199l-201 -201zM-72 1280l328 328l72 -72l-328 -328zM201 -129l55 -55l440 440l-55 55zM440 -512l713 713l72 -72l-129 -129l512 -512l-72 -72l-512 512l-512 -512zM823 -385l74 74l199 -201l-72 -72zM1464 1536l72 72l584 -584l-72 -72z M1591 385l74 72l455 -457l-72 -72zM1591 1153l74 72l455 -457l-72 -72zM1847 1409l201 199l72 -72l-127 -127l127 -129l-72 -72z" />
<glyph unicode="x" d="M-72 0l127 129l-127 127l72 72l328 -328l-72 -72l-127 127l-57 -55l184 -184l184 184l-385 385l74 72l127 -129l55 57l-127 127l72 72l129 -127l55 55l-129 129l74 72l127 -129l55 57l-127 127l72 72l129 -127l55 55l-129 129l74 72l328 -328l-72 -74l-129 129l-55 -55 l127 -129l-72 -72l-127 127l-57 -55l184 -184l129 129l72 -72l-129 -129l57 -55l127 127l72 -72l-127 -127l55 -57l184 184l-129 129l74 72l328 -328l-72 -74l-129 129l-184 -184l57 -55l127 127l72 -72l-328 -328l-72 72l127 127l-55 57l-184 -184l129 -129l-72 -72 l-330 328l74 74l127 -129l184 184l-55 55l-129 -127l-72 72l127 129l-55 55l-127 -129l-74 74l129 127l-184 184l-55 -55l127 -129l-72 -72l-127 127l-57 -55l256 -256l-256 -256l184 -184l55 55l-127 129l72 72l328 -328l-72 -72l-127 127l-129 -127l-256 256l-256 -256 l-72 72l256 256zM-72 1024l127 129l-127 127l72 72l129 -127l55 55l-129 129l74 72l328 -328l-72 -74l-129 129l-55 -55l127 -129l-72 -72l-127 127l-57 -55l184 -184l440 440l-184 184l-55 -55l127 -129l-72 -72l-328 328l72 72l129 -127l127 127l256 -256l256 256l72 -72 l-967 -969l-74 74l129 127zM696 1024l328 328l72 -72l-127 -127l55 -57l129 129l72 -72l-129 -129l57 -55l127 127l72 -72l-127 -127l55 -57l256 256l256 -256l55 57l-127 127l72 72l129 -127l55 55l-184 184l-127 -129l-74 74l129 127l-55 55l-129 -127l-72 72l127 129 l-55 55l-184 -184l129 -127l-72 -74l-330 330l74 72l127 -129l256 256l129 -127l127 127l72 -72l-127 -127l55 -57l129 129l72 -72l-129 -129l256 -256l-127 -127l127 -129l-72 -72l-127 127l-57 -55l129 -127l-72 -74l-385 385l-184 -184l184 -184l55 57l-127 127l72 72 l328 -328l-72 -72l-127 127l-57 -55l184 -184l256 256l72 -72l-256 -256l256 -256l-127 -129l127 -127l-72 -72l-328 328l72 72l129 -127l55 55l-184 184l-256 -256l-72 72l256 256l-184 184l-55 -55l127 -129l-72 -72l-328 328l72 72l129 -127l55 55l-184 184l-256 -256 l-72 72l256 256l-55 55l-129 -127l-72 72l127 129l-55 55l-127 -129l-74 74l129 127l-55 55l-129 -127zM1079 -385l330 330l72 -74l-129 -127l57 -55l127 127l72 -72l-127 -129l55 -55l184 184l-129 127l74 74l328 -330l-72 -72l-129 129l-256 -256l-127 127l-129 -127 l-72 72l127 127l-55 57l-127 -129z" />
<glyph unicode="y" horiz-adv-x="512" d="M-72 0l72 72l584 -584l-72 -72l-256 256l-127 -129l-201 201l127 127zM-72 256l201 201l127 -129l256 256l72 -72l-256 -256l256 -256l-199 -201l-201 201l127 129l-55 55l-127 -129zM-72 512l256 256l-256 256l72 72l328 -328l-328 -328zM-72 1536l72 72l584 -584 l-72 -72zM72 256l57 -55l55 55l-55 55zM72 -256l57 -55l55 55l-55 55zM328 0l57 -55l55 55l-55 55z" />
<glyph unicode="z" d="M-72 0l256 256l-256 256l72 72l512 -512l768 768l256 -256l512 512l72 -72l-256 -256l256 -256l-72 -72l-256 256l-256 -256l-256 256l-768 -768l-256 256l-256 -256zM-72 768l201 201l72 -72l-129 -129l440 -440l129 129l72 -72l-201 -201zM-72 1024l328 328l256 -256 l256 256l201 -199l-72 -74l-129 129l-256 -256l-256 256l-256 -256zM55 -129l201 201l256 -256l385 385l72 -72l-457 -457l-256 256l-127 -129zM184 -256l72 72l256 -256l768 768l256 -256l311 313l-55 55l-127 -129l-74 74l201 199l201 -199l-457 -457l-256 256l-440 -440 l256 -256l-72 -72l-256 256l-256 -256zM184 768l72 72l256 -256l696 696l-256 256l72 72l512 -512l512 512l72 -72l-584 -584l-256 256l-768 -768zM567 1409l201 199l328 -328l-72 -72l-256 256l-127 -129zM952 -256l201 201l72 -74l-129 -127l256 -256l-72 -72zM1079 897 l201 199l256 -256l385 385l72 -72l-457 -457l-256 256l-127 -129zM1208 -256l72 72l256 -256l512 512l72 -72l-256 -256l256 -256l-72 -72l-256 256l-256 -256zM1208 1536l72 72l256 -256l129 129l72 -72l-201 -201zM1847 129l201 199l72 -72l-199 -201z" />
<glyph unicode="{" horiz-adv-x="512" d="M-72 512l584 584l72 -72l-512 -512l512 -512l-72 -72zM-72 -512l256 256l-129 127l201 201l201 -201l-129 -127l256 -256l-72 -72l-256 256l-256 -256zM-72 1536l72 72l256 -256l256 256l72 -72l-256 -256l129 -127l-201 -201l-201 201l129 127zM184 512l201 201 l199 -201l-199 -201z" />
<glyph unicode="|" horiz-adv-x="1024" d="M-72 0l72 72l584 -584l-72 -72zM-72 512l328 328l512 -512l256 256l72 -72l-328 -328l-512 512l-256 -256zM-72 1536l72 72l969 -967l-201 -201l-328 328l127 129zM55 385l201 199l328 -328l-127 -127l639 -641l-72 -72zM440 1536l72 72l584 -584l-72 -72z" />
<glyph unicode="}" horiz-adv-x="512" d="M-72 0l256 256l-129 129l74 72l127 -129l184 184l-512 512l72 72l256 -256l129 129l72 -72l-129 -129l256 -256l-512 -512l129 -129l-72 -72zM-72 512l201 201l72 -72l-201 -201zM-72 -512l457 457l72 -74l-129 -127l256 -256l-72 -72l-256 256l-256 -256zM-72 1536 l72 72l256 -256l256 256l72 -72l-455 -457l-74 74l129 127zM311 129l74 72l199 -201l-72 -72zM311 1153l74 72l199 -201l-72 -72z" />
<glyph unicode="~" d="M-72 0l256 256l-256 256l72 72l328 -328l-328 -328zM-72 -512l201 201l72 -74l-201 -199zM-72 768l72 72l385 -383l55 55l-512 512l72 72l512 -512l129 129l72 -72l-129 -129l440 -440l129 129l199 -201l-199 -201l-129 129l-127 -129zM-72 1280l127 129l-127 127l72 72 l129 -127l127 127l72 -72l-127 -127l55 -57l129 129l72 -72l-129 -129l696 -696l184 184l-129 129l74 72l127 -129l129 129l72 -72l-584 -586l-74 74l129 127l-696 696l-127 -129l-74 74l129 127l-55 55l-129 -127zM184 -256l328 328l385 -383l127 127l129 -127l311 311 l-256 256l457 457l72 -72l-129 -129l512 -512l-72 -72l-512 512l-184 -184l256 -256l-383 -385l127 -127l-72 -72l-127 127l-129 -127l-256 256l-127 -129l-74 72l129 129l-55 55l-129 -127l-72 72l127 127l-55 57l-184 -184l256 -256l-72 -72zM440 1536l72 72l457 -455 l-72 -74zM457 385l440 -440l55 55l-440 440zM823 897l512 512l-127 127l72 72l129 -127l127 127l72 -72l-711 -713zM952 256l639 641l-127 127l127 129l-127 127l72 72l129 -127l127 127l328 -328l-72 -72l-256 256l-55 -55l127 -129l-127 -127l383 -385l-72 -72l-383 383 l-641 -639zM969 -385l55 -55l55 55l-55 57zM1096 0l57 -55l55 55l-55 55zM1464 -512l328 328l328 -328l-72 -72l-256 256l-256 -256zM1608 1024l57 -55l55 55l-55 55zM1847 897l74 72l199 -201l-72 -72zM1847 1409l201 199l72 -72l-199 -201z" />
<glyph unicode="&#xa1;" horiz-adv-x="1024" d="M-72 0l256 256l-129 129l201 199l129 -127l639 639l72 -72l-256 -256l129 -127l-201 -201l-127 127l-569 -567l512 -512l-72 -72zM-72 512l256 256l-129 129l201 199l129 -127l639 639l72 -72l-256 -256l129 -127l-201 -201l-127 127l-641 -639zM-72 1024l584 584l72 -72 l-584 -584zM201 385l55 -57l55 57l-55 55zM311 129l330 328l72 -72l-328 -330zM311 641l330 328l72 -72l-328 -330zM311 1153l330 328l72 -72l-328 -330zM440 0l584 584l72 -72l-512 -512l512 -512l-72 -72zM713 1153l55 -57l55 57l-55 55z" />
<glyph unicode="&#xa2;" d="M-72 0l256 256l-256 256l328 328l328 -328l-512 -512l440 -440l897 897l328 -328l-129 -129l512 -512l-72 -72l-512 512l-512 -512l-256 256l-256 -256zM-72 1536l72 72l512 -512l512 512l328 -328l-711 -713l-330 330l129 127zM72 512l184 -184l55 57l-182 182zM184 0 l1352 1352l328 -328l-1352 -1352zM201 641l184 -184l55 55l-184 184zM328 0l184 -184l55 55l-182 184zM457 129l184 -184l55 55l-184 184zM457 897l184 -184l55 55l-184 184zM584 256l184 -184l55 57l-182 182zM584 1024l184 -184l55 57l-182 182zM713 385l184 -184l55 55 l-184 184zM713 1153l184 -184l55 55l-184 184zM840 -256l184 -184l55 55l-182 184zM840 512l184 -184l55 57l-182 182zM840 1280l184 -184l55 57l-182 182zM969 -129l184 -182l55 55l-184 184zM969 641l184 -184l55 55l-184 184zM969 1409l184 -184l55 55l-184 184zM1096 0 l184 -184l55 55l-182 184zM1096 768l184 -184l55 57l-182 182zM1225 129l184 -184l55 55l-184 184zM1225 897l184 -184l55 55l-184 184zM1335 1409l201 199l584 -584l-256 -256l256 -256l-328 -328l-328 328l512 512l-440 440l-127 -129zM1352 256l184 -184l55 57l-182 182z M1352 1024l184 -184l55 57l-182 182zM1481 1153l184 -184l55 55l-184 184zM1608 512l184 -184l55 57l-182 182zM1737 641l184 -184l55 55l-184 184z" />
<glyph unicode="&#xa3;" horiz-adv-x="512" d="M-72 0l256 256l-256 256l72 72l584 -584l-584 -584l-72 72l383 383l-182 184l-129 -127zM-72 768l72 72l584 -584l-72 -72zM-72 1024l584 584l72 -72l-383 -383l184 -184l127 127l72 -72l-256 -256l256 -256l-72 -72z" />
<glyph unicode="&#xa5;" horiz-adv-x="512" d="M-72 0l72 72l584 -584l-72 -72l-256 256l-127 -129l-201 201l127 127zM-72 256l201 201l127 -129l256 256l72 -72l-256 -256l256 -256l-199 -201l-201 201l127 129l-55 55l-127 -129zM-72 512l512 512l-512 512l72 72l584 -584l-584 -584zM72 256l57 -55l55 55l-55 55z M72 -256l57 -55l55 55l-55 55zM328 0l57 -55l55 55l-55 55z" />
<glyph unicode="&#xa7;" horiz-adv-x="512" d="M-72 -256l256 256l-256 256l512 512l-184 184l-256 -256l-72 72l584 584l72 -72l-256 -256l256 -256l-512 -512l184 -184l256 256l72 -72l-584 -584zM-72 512l328 328l72 -72l-328 -328zM-72 -512l584 584l72 -72l-584 -584zM-72 1024l584 584l72 -72l-584 -584zM184 256 l328 328l72 -72l-328 -328z" />
<glyph unicode="&#xa8;" horiz-adv-x="512" d="M-72 0l72 72l584 -584l-72 -72zM-72 256l72 72l584 -584l-72 -72zM-72 -256l72 72l328 -328l-72 -72zM-72 512l512 512l-512 512l72 72l584 -584l-512 -512l512 -512l-72 -72zM184 512l72 72l328 -328l-72 -72z" />
<glyph unicode="&#xa9;" d="M-72 0l72 72l584 -584l-72 -72zM-72 -256l72 72l328 -328l-72 -72zM-72 512l72 72l328 -328l-72 -72zM-72 1024l72 72l512 -512l55 57l-639 639l72 72l1096 -1096l-199 -201l-129 129l-184 -184l512 -512l-72 -72l-584 584l256 256zM-72 1536l72 72l1280 -1280l256 256 l584 -584l-72 -72l-383 383l-57 -55l512 -512l-72 -72l-512 512l-184 -184l512 -512l-72 -72l-512 512l-55 -57l383 -383l-72 -72l-584 584l256 256zM184 1536l72 72l641 -639l55 55l-512 512l72 72l768 -768l256 256l584 -584l-72 -72l-512 512l-184 -184l129 -127 l-201 -201zM952 1536l72 72l328 -328l-72 -72zM1464 0l72 72l584 -584l-72 -72zM1464 1536l72 72l584 -584l-72 -72zM1720 1536l72 72l328 -328l-72 -72z" />
<glyph unicode="&#xaa;" horiz-adv-x="1024" d="M-72 0l256 256l-256 256l256 256l-256 256l256 256l-256 256l72 72l256 -256l256 256l72 -72l-512 -512l184 -184l768 768l72 -72l-768 -768l385 -383l-72 -74l-385 385l-184 -184l184 -184l129 129l72 -72l-457 -457zM-72 -512l1024 1024l-184 184l-127 -129l-74 74 l457 455l72 -72l-256 -256l256 -256l-256 -256l256 -256l-72 -72l-256 256l-768 -768zM567 -385l330 330l72 -74l-129 -127l256 -256l-72 -72l-256 256l-127 -129z" />
<glyph unicode="&#xab;" horiz-adv-x="1024" d="M-72 0l72 72l584 -584l-72 -72zM-72 256l72 72l256 -256l184 184l-256 256l72 72l328 -328l-328 -328zM-72 -256l72 72l328 -328l-72 -72zM-72 512l1096 1096l72 -72l-1024 -1024l256 -256l-72 -72zM-72 1024l584 584l72 -72l-584 -584zM184 -256l584 584l72 -72 l-584 -584zM440 -256l328 328l328 -328l-72 -72l-256 256l-184 -184l256 -256l-72 -72zM440 512l584 584l72 -72l-512 -512l512 -512l-72 -72zM696 -256l72 72l328 -328l-72 -72zM696 512l72 72l328 -328l-72 -72z" />
<glyph unicode="&#xac;" horiz-adv-x="1024" d="M-72 0l256 256l-129 129l330 328l127 -129l184 184l-184 184l-127 -129l-74 74l129 127l-256 256l328 328l72 -72l-256 -256l440 -440l256 256l72 -72l-256 -256l129 -127l-328 -330l-129 129l-184 -184l184 -184l129 129l72 -72l-129 -129l256 -256l-328 -328l-72 72 l256 256l-440 440l-256 -256zM-72 512l256 256l-256 256l72 72l328 -328l-328 -328zM-72 -512l457 457l72 -74l-457 -455zM201 385l55 -57l184 184l-55 55zM567 1153l457 455l72 -72l-455 -457zM584 512l57 -55l182 184l-55 55zM696 256l328 328l72 -72l-256 -256l256 -256 l-72 -72z" />
<glyph unicode="&#xae;" horiz-adv-x="1024" d="M-72 0l72 72l256 -256l440 440l-768 768l72 72l840 -840l-256 -256l184 -184l256 256l72 -72l-584 -584l-72 72l256 256l-184 184l-256 -256zM-72 256l72 72l201 -199l-72 -74zM-72 512l72 72l328 -328l-72 -72zM-72 768l72 72l457 -455l-72 -74zM-72 1536l72 72 l256 -256l256 256l72 -72l-328 -328zM311 1153l457 455l72 -72l-455 -457zM440 1024l584 584l72 -72l-584 -584zM567 897l201 199l72 -72l-199 -201zM696 768l328 328l72 -72l-256 -256l256 -256l-72 -72z" />
<glyph unicode="&#xaf;" horiz-adv-x="512" d="M-72 -256l201 201l127 -129l55 55l-127 129l127 129l-55 55l-127 -129l-201 201l127 129l-127 127l72 72l129 -127l127 127l201 -199l-129 -129l256 -256l-256 -256l256 -256l-72 -72l-256 256l-127 -129zM-72 768l201 201l127 -129l55 57l-127 127l127 129l-55 55 l-127 -129l-201 201l127 129l-127 127l72 72l129 -127l127 127l201 -199l-129 -129l256 -256l-256 -256l256 -256l-72 -72l-256 256l-127 -129zM72 256l57 -55l55 55l-55 55zM72 -256l57 -55l55 55l-55 55zM72 768l57 -55l55 55l-55 55zM72 1280l57 -55l55 55l-55 55z M201 385l55 -57l55 57l-55 55zM201 1409l55 -57l55 57l-55 55zM328 0l57 -55l55 55l-55 55zM328 1024l57 -55l55 55l-55 55z" />
<glyph unicode="&#xb0;" horiz-adv-x="1024" d="M-72 0l72 72l512 -512l512 512l72 -72l-584 -584zM-72 -256l72 72l328 -328l-72 -72zM-72 512l256 256l-129 129l330 328l199 -201l-512 -512l256 -256l-72 -72zM-72 1024l584 584l584 -584l-72 -72l-512 512l-512 -512zM-72 1280l328 328l72 -72l-328 -328zM184 512 l328 328l328 -328l-455 -457l-74 74l385 383l-184 184l-256 -256zM440 0l512 512l-385 385l74 72l455 -457l-256 -256l129 -127l-328 -330zM696 -512l328 328l72 -72l-328 -328z" />
<glyph unicode="&#xb1;" horiz-adv-x="512" d="M-72 0l584 584l72 -72l-256 -256l256 -256l-72 -72l-256 256l-256 -256zM-72 256l584 584l72 -72l-584 -584zM-72 512l256 256l-256 256l72 72l256 -256l256 256l72 -72l-584 -584zM-72 -512l328 328l328 -328l-72 -72l-256 256l-256 -256zM-72 1280l72 72l328 -328 l-72 -72zM-72 1536l72 72l256 -256l256 256l72 -72l-328 -328zM184 0l72 72l328 -328l-72 -72z" />
<glyph unicode="&#xb4;" horiz-adv-x="512" d="M-72 0l127 129l-127 127l201 201l127 -129l72 -72l57 -55l199 -201l-72 -72l-127 -129l-201 201l127 129l-55 55l-127 -129l-129 -127zM-72 -256l201 201l127 -129l72 -72l256 -256l-72 -72l-256 256l-127 -129l-129 -127l-72 72l127 127zM-72 1024l72 72l584 -584 l-72 -72zM-72 1536l72 72l584 -584l-72 -72z" />
<glyph unicode="&#xb5;" d="M-72 0l256 256l-256 256l72 72l328 -328l-328 -328zM-72 -256l512 512l-512 512l72 72l584 -584l-584 -584zM-72 -512l768 768l-768 768l72 72l840 -840l-840 -840zM-72 1280l72 72l969 -967l-72 -74zM-72 1536l72 72l1280 -1280l696 696l-512 512l72 72l584 -584 l-1608 -1608l-72 72l768 768zM184 1536l72 72l969 -967l-72 -74zM440 1536l72 72l840 -840l-72 -72zM696 -512l1352 1352l72 -72l-1352 -1352zM696 1536l72 72l713 -711l-72 -74zM952 -512l1096 1096l72 -72l-1096 -1096zM952 1536l72 72l584 -584l-72 -72zM1464 -512 l584 584l72 -72l-584 -584zM1720 -512l328 328l72 -72l-328 -328zM1720 1536l72 72l328 -328l-72 -72z" />
<glyph unicode="&#xb6;" d="M-72 0l256 256l-256 256l72 72l328 -328l-328 -328zM-72 -512l768 768l-256 256l584 584l72 -72l-256 -256l696 -696l184 184l-256 256l584 584l72 -72l-512 -512l256 -256l-584 -584l-72 72l256 256l-696 696l-184 -184l256 -256l-840 -840zM-72 1024l584 584l72 -72 l-512 -512l184 -184l768 768l256 -256l256 256l72 -72l-328 -328l-256 256l-768 -768zM184 512l840 840l328 -328l-256 -256l184 -184l256 256l72 -72l-256 -256l256 -256l-72 -72l-584 584l256 256l-184 184l-696 -696l256 -256l-72 -72zM440 -512l584 584l72 -72 l-584 -584zM696 0l256 256l-256 256l72 72l584 -584l-256 -256l184 -184l696 696l-256 256l72 72l328 -328l-840 -840l-328 328l256 256l-184 184l-256 -256zM1208 768l840 840l72 -72l-840 -840zM1464 -512l584 584l72 -72l-584 -584z" />
<glyph unicode="&#xb7;" horiz-adv-x="1024" d="M-72 0l328 328l328 -328l-584 -584l-72 72l512 512l-184 184l-256 -256zM-72 -256l328 328l72 -72l-328 -328zM-72 512l328 328l512 -512l256 256l72 -72l-328 -328l-512 512l-256 -256zM-72 1024l584 584l72 -72l-584 -584zM184 512l72 72l457 -455l-72 -74zM311 897 l74 72l455 -457l-72 -72zM440 -512l584 584l72 -72l-584 -584zM440 1024l584 584l72 -72l-512 -512l184 -184l256 256l72 -72l-328 -328zM696 1024l328 328l72 -72l-328 -328z" />
<glyph unicode="&#xb8;" d="M-72 0l256 256l-256 256l72 72l256 -256l184 184l-512 512l72 72l512 -512l55 57l-127 127l328 328l129 -127l55 55l-512 512l72 72l512 -512l184 184l-256 256l72 72l256 -256l256 256l457 -455l-72 -74l-385 385l-184 -184l641 -639l-72 -74l-641 641l-184 -184 l256 -256l-72 -72l-256 256l-55 -55l256 -256l-328 -330l-256 256l-57 -55l256 -256l-72 -72l-256 256l-184 -184l641 -641l-72 -72l-641 641l-184 -184l385 -385l-72 -72zM-72 -256l72 72l328 -328l-72 -72zM-72 1280l328 328l72 -72l-328 -328zM55 1153l330 328l328 -328 l-328 -330zM584 768l313 -311l182 184l-311 311zM823 129l74 72l639 -641l440 440l-641 641l74 72l711 -713l-584 -584zM952 256l328 328l328 -328l-328 -328zM1335 -129l330 330l199 -201l-328 -328zM1481 -129l55 -55l184 184l-55 55zM1720 -512l328 328l72 -72l-328 -328 zM1720 1536l72 72l328 -328l-72 -72z" />
<glyph unicode="&#xba;" horiz-adv-x="1024" d="M-72 512l1096 1096l72 -72l-1024 -1024l385 -383l-72 -74zM-72 -512l1024 1024l-385 385l74 72l455 -457l-1096 -1096zM-72 768l512 512l-256 256l72 72l328 -328l-584 -584zM-72 1536l72 72l328 -328l-72 -72zM184 512l328 328l328 -328l-328 -328zM184 -512l840 840 l72 -72l-840 -840zM696 -256l72 72l328 -328l-72 -72z" />
<glyph unicode="&#xbb;" horiz-adv-x="1024" d="M-72 0l512 512l-512 512l72 72l256 -256l440 440l-256 256l72 72l584 -584l-72 -72l-256 256l-440 -440l256 -256l-584 -584zM-72 -512l512 512l-129 129l328 328l129 -129l184 184l-57 55l-127 -127l-328 328l328 328l328 -328l-127 -127l127 -129l-256 -256l129 -127 l-330 -330l-127 129l-512 -512zM-72 512l199 201l201 -201l-201 -201zM-72 1536l72 72l256 -256l127 129l201 -201l-328 -328l-201 201l129 127zM72 512l55 -55l57 55l-57 55zM201 1153l55 -57l184 184l-57 55zM440 -512l584 584l72 -72l-584 -584zM457 129l55 -57l184 184 l-57 55z" />
<glyph unicode="&#xbf;" horiz-adv-x="1024" d="M-72 0l895 897l-440 438l-383 -383l-72 72l584 584l72 -72l-127 -127l438 -440l129 127l72 -72l-1024 -1024l512 -512l-72 -72zM-72 512l256 256l-129 129l328 328l330 -328l-330 -330l-127 129l-256 -256zM184 0l328 328l127 -127l385 383l72 -72l-383 -383l127 -129 l-127 -129l383 -383l-72 -72l-385 383l-127 -127zM201 897l182 -184l184 184l-184 182zM696 1280l328 328l72 -72l-328 -328z" />
<glyph unicode="&#xc0;" d="M-72 0l328 328l256 -256l184 184l-512 512l328 328l512 -512l184 184l-129 129l330 328l127 -129l512 512l72 -72l-2120 -2120l-72 72l256 256zM440 -512l328 328l328 -328l-72 -72l-256 256l-256 -256zM952 0l1096 1096l72 -72l-1024 -1024l512 -512l-72 -72zM1464 0 l72 72l584 -584l-72 -72zM1720 256l328 328l72 -72l-256 -256l256 -256l-72 -72z" />
<glyph unicode="&#xc1;" horiz-adv-x="512" d="M-72 0l127 129l-127 127l201 201l127 -129l256 256l72 -72l-512 -512l512 -512l-72 -72l-256 256l-127 -129l-201 201l127 127zM-72 512l256 256l-256 256l72 72l328 -328l-328 -328zM-72 1536l72 72l584 -584l-72 -72zM72 256l57 -55l55 55l-55 55zM72 -256l57 -55 l55 55l-55 55zM184 0l201 201l199 -201l-199 -201zM328 0l57 -55l55 55l-55 55z" />
<glyph unicode="&#xc2;" d="M-72 0l768 768l-768 768l72 72l840 -840l-840 -840zM-72 256l512 512l-512 512l72 72l584 -584l-584 -584zM-72 -256l969 969l72 -72l-969 -969zM-72 -512l1280 1280l-768 768l72 72l1608 -1608l-584 -584l-72 72l512 512l-696 696l-1280 -1280zM-72 512l256 256 l-256 256l72 72l328 -328l-328 -328zM184 -512l969 969l72 -72l-969 -969zM440 -512l840 840l72 -72l-840 -840zM696 -512l713 713l72 -72l-713 -713zM696 1536l72 72l1352 -1352l-72 -72zM952 -512l584 584l72 -72l-584 -584zM952 1536l72 72l1096 -1096l-72 -72z M1464 1536l72 72l584 -584l-72 -72zM1720 -512l328 328l72 -72l-328 -328zM1720 1536l72 72l328 -328l-72 -72z" />
<glyph unicode="&#xc3;" horiz-adv-x="512" d="M-72 0l584 584l72 -72l-512 -512l184 -184l256 256l72 -72l-584 -584l-72 72l256 256zM-72 256l328 328l72 -72l-328 -328zM-72 512l512 512l-184 184l-256 -256l-72 72l584 584l72 -72l-256 -256l256 -256l-584 -584zM184 0l328 328l72 -72l-328 -328zM184 -512l328 328 l72 -72l-328 -328z" />
<glyph unicode="&#xc4;" d="M-72 -512l383 383l-127 129l201 201l127 -129l55 57l-127 127l201 201l711 -713l-328 -328l-72 72l256 256l-184 184l-127 -129l-201 201l127 129l-55 55l-768 -768zM184 512l201 201l199 -201l-199 -201zM184 1280l201 201l199 -201l-199 -201zM440 -256l201 201 l199 -201l-328 -328l-72 72l127 127zM567 897l201 199l201 -199l-201 -201zM696 1280l201 201l199 -201l-199 -201zM823 641l201 199l129 -127l55 55l-129 129l201 199l129 -127l55 55l-129 129l201 199l129 -127l383 383l72 -72l-1024 -1024l57 -55l127 127l201 -199 l-129 -129l184 -184l512 512l72 -72l-584 -584zM1335 641l201 199l129 -127l55 55l-129 129l201 199l129 -127l127 127l72 -72l-584 -584zM1464 -512l584 584l72 -72l-584 -584z" />
<glyph unicode="&#xc5;" horiz-adv-x="512" d="M-72 0l72 72l129 -127l256 256l199 -201l-72 -72l-127 127l-256 -256zM-72 256l72 72l201 -199l-72 -74zM-72 512l72 72l256 -256l256 256l72 -72l-328 -328zM-72 -512l328 328l328 -328l-72 -72l-256 256l-256 -256zM-72 1024l72 72l256 -256l256 256l72 -72l-328 -328z M55 1409l74 72l328 -328l-72 -74zM311 -129l74 74l199 -201l-72 -72z" />
<glyph unicode="&#xc6;" d="M-72 0l840 840l512 -512l768 768l72 -72l-768 -768l768 -768l-72 -72l-1280 1280l-768 -768zM-72 512l1096 1096l72 -72l-1096 -1096zM-72 -512l840 840l840 -840l-72 -72l-768 768l-768 -768zM-72 1024l584 584l72 -72l-584 -584zM440 -512l328 328l328 -328l-72 -72 l-256 256l-256 -256zM696 0l72 72l584 -584l-72 -72zM696 512l72 72l1096 -1096l-72 -72zM696 1024l584 584l72 -72l-584 -584zM823 897l713 711l72 -72l-711 -713zM952 768l840 840l72 -72l-840 -840zM1079 641l969 967l72 -72l-967 -969zM1720 256l328 328l72 -72 l-328 -328z" />
<glyph unicode="&#xc7;" d="M-72 0l72 72l584 -584l-72 -72zM-72 512l768 768l-256 256l72 72l457 -455l-72 -74l-129 129l-696 -696l952 -952l1024 1024l72 -72l-1096 -1096zM-72 1024l328 328l72 -72l-328 -328zM440 512l1096 1096l72 -72l-1024 -1024l440 -440l440 440l-184 184l-256 -256l-72 72 l256 256l-129 129l74 72l127 -129l184 184l-129 129l74 72l127 -129l512 512l72 -72l-512 -512l184 -184l256 256l72 -72l-256 -256l129 -127l-72 -74l-129 129l-184 -184l129 -127l-72 -74l-129 129l-512 -512zM952 1536l72 72l201 -199l-72 -74zM1352 768l184 -184 l184 184l-184 184zM1464 -512l512 512l-129 129l74 72l199 -201l-584 -584z" />
<glyph unicode="&#xc8;" d="M-72 1536l72 72l256 -256l129 129l72 -72l-129 -129l184 -184l129 129l72 -72l-129 -129l184 -184l129 129l72 -72l-129 -129l57 -55l895 895l72 -72l-895 -895l55 -57l129 129l72 -72l-129 -129l184 -184l129 129l72 -72l-129 -129l184 -184l129 129l72 -72l-129 -129 l184 -184l129 129l72 -74l-129 -127l256 -256l-72 -72zM440 1280l127 129l-127 127l72 72l512 -512l512 512l72 -72l-584 -584l-127 127l-129 -127l-72 72l127 129l-182 182l-129 -127zM1208 512l127 129l-127 127l840 840l72 -72l-768 -768l768 -768l-72 -72l-127 127 l-129 -127l-72 72l127 129l-182 182l-129 -127l-72 72l127 129l-182 182l-129 -127zM1720 768l328 328l72 -72l-256 -256l256 -256l-72 -72z" />
<glyph unicode="&#xcb;" d="M-72 0l584 584l256 -256l1280 1280l72 -72l-1280 -1280l256 -256l-584 -584zM-72 1536l72 72l768 -768l768 768l72 -72l-840 -840zM72 0l440 -440l440 440l-440 440zM184 0l328 328l328 -328l-328 -328zM328 0l184 -184l184 184l-184 184zM440 1536l72 72l256 -256 l256 256l72 -72l-328 -328zM1208 256l840 840l72 -72l-768 -768l768 -768l-72 -72zM1720 256l328 328l72 -72l-256 -256l256 -256l-72 -72z" />
<glyph unicode="&#xcd;" horiz-adv-x="1024" d="M-72 0l768 768l-311 311l-57 -55l256 -256l-328 -328l-72 72l256 256l-256 256l201 201l455 -457l-256 -256l512 -512l-72 -72l-512 512l-440 -440l256 -256l-328 -328l-72 72l256 256zM-72 512l256 256l-256 256l584 584l584 -584l-72 -72l-512 512l-440 -440l256 -256 l-328 -328zM440 0l201 201l455 -457l-328 -328l-72 72l256 256l-311 311l-57 -55l256 -256l-328 -328l-72 72l256 256z" />
<glyph unicode="&#xce;" d="M-72 0l72 72l256 -256l184 184l-512 512l72 72l584 -584l-584 -584l-72 72l256 256zM-72 1024l584 584l256 -256l256 256l72 -72l-840 -840zM72 1024l184 -184l184 184l-184 184zM328 1280l184 -184l55 57l-182 182zM440 -512l512 512l-512 512l840 840l840 -840l-72 -72 l-768 768l-696 -696l1024 -1024l-72 -72l-256 256l-256 -256l-256 256l-256 -256zM840 -256l184 -184l184 184l-184 184zM952 512l328 328l840 -840l-256 -256l256 -256l-72 -72zM1096 512l184 -184l184 184l-184 184zM1352 256l57 -55l182 184l-55 55zM1464 1536l72 72 l584 -584l-72 -72zM1481 129l55 -57l184 184l-55 55z" />
<glyph unicode="&#xcf;" d="M-72 0l72 72l256 -256l256 256l72 -72l-256 -256l256 -256l-72 -72l-256 256l-256 -256l-72 72l256 256zM-72 512l256 256l-256 256l328 328l72 -72l-256 -256l256 -256l-328 -328zM-72 1280l201 201l72 -72l-201 -201zM184 256l584 584l72 -72l-256 -256l184 -184 l440 440l-440 440l-256 -256l-72 72l256 256l-256 256l72 72l256 -256l256 256l72 -72l-256 -256l440 -440l256 256l72 -72l-256 -256l440 -440l256 256l72 -72l-584 -584l-72 72l256 256l-440 440l-440 -440l184 -184l256 256l72 -72l-256 -256l256 -256l-72 -72l-256 256 l-256 -256l-72 72l256 256l-440 440l-256 -256zM311 129l201 199l328 -328l-199 -201l-74 72l129 129l-184 184l-127 -129zM696 512l201 201l72 -72l-201 -201zM952 256l201 201l72 -72l-201 -201zM1208 1280l328 328l584 -584l-328 -328l-72 72l256 256l-440 440l-256 -256 zM1335 1153l201 199l328 -328l-199 -201l-74 74l129 127l-184 184l-127 -129zM1464 -512l584 584l72 -72l-584 -584zM1720 -512l201 201l72 -74l-201 -199zM1847 1409l201 199l72 -72l-199 -201z" />
<glyph unicode="&#xd1;" d="M-72 0l72 72l256 -256l55 55l-127 129l127 129l-383 383l72 72l385 -383l639 639l72 -72l-639 -639l127 -129l-127 -129l127 -127l-72 -72l-127 127l-129 -127zM-72 256l72 72l201 -199l-72 -74zM-72 -512l201 201l72 -74l-201 -199zM-72 1024l72 72l512 -512l184 184 l-256 256l383 385l-127 127l72 72l129 -127l127 127l256 -256l129 129l72 -72l-129 -129l57 -55l127 127l72 -72l-127 -127l55 -57l184 184l-256 256l72 72l328 -328l-328 -328l-383 383l-129 -127l-127 127l-313 -311l256 -256l-455 -457l-74 74l129 127zM-72 1536l72 72 l256 -256l256 256l72 -72l-328 -328zM328 0l57 -55l55 55l-55 55zM440 -512l713 713l72 -72l-512 -514l127 -127l-72 -72l-127 127l-129 -127zM567 129l586 584l72 -72l-129 -129l696 -696l129 129l72 -74l-129 -127l57 -55l127 127l72 -72l-127 -129l127 -127l-72 -72 l-127 127l-129 -127l-72 72l127 127l-55 57l-127 -129l-74 72l129 129l-696 696l-184 -184l129 -127l-72 -74l-129 129l-127 -129zM696 1024l201 201l127 -129l129 129l967 -969l-72 -72l-383 383l-57 -55l512 -512l-72 -72l-512 512l-127 -129l-74 74l129 127l-440 440 l-127 -129zM840 1024l57 -55l55 55l-55 55zM969 1409l55 -57l55 57l-55 55zM1079 -129l74 74l455 -457l-72 -72zM1096 1024l440 -440l55 57l-438 438zM1720 768l328 328l72 -72l-256 -256l256 -256l-72 -72zM1847 1409l201 199l72 -72l-199 -201z" />
<glyph unicode="&#xd2;" horiz-adv-x="1024" d="M-72 0l256 256l-256 256l72 72l328 -328l-328 -328zM-72 1024l72 72l256 -256l440 440l-256 256l72 72l328 -328l-383 -383l512 -512l-129 -129l256 -256l-72 -72l-256 256l-440 -440l256 -256l-72 -72l-328 328l383 385l-512 512l129 127zM-72 1536l72 72l457 -455 l-72 -74zM201 641l440 -440l55 55l-440 440zM328 768l440 -440l55 57l-438 438zM567 -129l74 74l455 -457l-72 -72zM696 768l328 328l72 -72l-256 -256l256 -256l-72 -72z" />
<glyph unicode="&#xd3;" horiz-adv-x="1024" d="M-72 0l584 584l256 -256l256 256l72 -72l-328 -328l-256 256l-440 -440l512 -512l-72 -72zM-72 512l72 72l129 -127l182 184l-256 256l586 584l127 -129l256 256l72 -72l-328 -328l-127 127l-440 -438l256 -256l-328 -330zM-72 1024l584 584l72 -72l-584 -584zM184 0 l328 328l457 -457l-129 -127l256 -256l-72 -72l-256 256l-127 -129zM311 897l330 328l256 -256l127 127l72 -72l-127 -127l127 -129l-328 -328zM328 0l57 -55l182 184l-55 55zM457 897l184 -184l182 184l-182 182z" />
<glyph unicode="&#xd4;" d="M-72 0l584 584l584 -584l-584 -584l-72 72l512 512l-440 440l-512 -512zM-72 512l328 328l72 -72l-328 -328zM-72 -512l584 584l72 -72l-584 -584zM-72 1024l584 584l72 -72l-256 -256l1792 -1792l-72 -72l-1792 1792l-256 -256zM440 256l72 72l328 -328l-72 -72z M440 768l72 72l840 -840l-72 -72zM696 1024l72 72l840 -840l-72 -72zM696 1280l328 328l72 -72l-328 -328zM952 -512l328 328l328 -328l-72 -72l-256 256l-256 -256zM952 1024l584 584l72 -72l-512 -512l440 -440l512 512l72 -72l-584 -584zM1208 1024l72 72l328 -328 l-72 -72zM1464 1024l584 584l72 -72l-584 -584zM1720 256l328 328l72 -72l-256 -256l256 -256l-72 -72z" />
<glyph unicode="&#xd5;" horiz-adv-x="512" d="M-72 0l256 256l-256 256l72 72l584 -584l-72 -72l-256 256l-256 -256zM-72 -256l328 328l328 -328l-72 -72l-256 256l-256 -256zM-72 1024l256 256l-256 256l72 72l584 -584l-72 -72l-256 256l-256 -256zM184 -256l72 72l328 -328l-72 -72zM184 512l72 72l328 -328 l-72 -72zM184 768l72 72l328 -328l-72 -72z" />
<glyph unicode="&#xd7;" horiz-adv-x="512" d="M-72 0l72 72l328 -328l-328 -328l-72 72l256 256zM-72 512l256 256l-256 256l72 72l328 -328l-328 -328zM55 129l74 72l328 -330l-72 -72zM55 1153l74 72l328 -328l-72 -74zM184 256l328 328l72 -72l-256 -256l256 -256l-72 -72zM184 1280l328 328l72 -72l-256 -256 l256 -256l-72 -72z" />
<glyph unicode="&#xd8;" horiz-adv-x="512" d="M-72 0l328 328l328 -328l-199 -201l-201 201l127 129l-55 55l-184 -184l512 -512l-72 -72l-256 256l-127 -129l-201 201l127 127zM-72 1024l584 584l72 -72l-512 -512l512 -512l-72 -72z" />
<glyph unicode="&#xda;" horiz-adv-x="512" d="M-72 0l512 512l-512 512l201 201l199 -201l-72 -72l-127 127l-57 -55l512 -512l-512 -512l512 -512l-72 -72zM-72 1536l72 72l584 -584l-72 -72zM55 385l129 127l-129 129l74 72l199 -201l-199 -201zM311 129l201 199l72 -72l-127 -127l127 -129l-72 -72zM311 897l74 72 l199 -201l-72 -72z" />
<glyph unicode="&#xdf;" horiz-adv-x="1024" d="M-72 0l256 256l-256 256l72 72l328 -328l-256 -256l440 -440l512 512l72 -72l-584 -584zM-72 1024l256 256l-256 256l72 72l328 -328l-256 -256l440 -440l512 512l72 -72l-512 -512l256 -256l-455 -457l-201 201l256 256l-256 256l72 72l328 -328l-256 -256l57 -55 l311 311zM440 1024l256 256l-256 256l72 72l328 -328l-256 -256l57 -55l311 311l-256 256l72 72l328 -328l-455 -457z" />
<glyph unicode="&#xe0;" d="M-72 0l1024 1024l-512 512l72 72l584 -584l-1096 -1096zM-72 -512l2120 2120l72 -72l-256 -256l256 -256l-328 -328l-256 256l-184 -184l512 -512l-328 -328l-512 512l-184 -184l129 -127l-328 -330l-129 129l-512 -512zM-72 512l256 256l-256 256l72 72l328 -328 l-328 -328zM-72 1536l72 72l584 -584l-72 -72zM952 1536l72 72l256 -256l256 256l72 -72l-328 -328z" />
<glyph unicode="&#xe3;" horiz-adv-x="512" d="M-72 0l72 72l256 -256l184 184l-512 512l72 72l584 -584l-256 -256l256 -256l-72 -72zM-72 256l72 72l328 -328l-72 -72zM-72 -256l72 72l328 -328l-72 -72zM-72 1024l256 256l-256 256l72 72l584 -584l-72 -72l-256 256l-184 -184l512 -512l-72 -72zM184 512l72 72 l328 -328l-72 -72z" />
<glyph unicode="&#xe4;" d="M-72 0l584 584l201 -199l-201 -201l-127 127l-57 -55l129 -127l-201 -201l-127 127l-129 -127zM-72 -512l1024 1024l-55 55l-129 -127l-201 201l129 127l-184 184l-512 -512l-72 72l584 584l713 -711l-201 -201l-127 127l-313 -311l129 -129l-201 -199l-127 127 l-385 -383zM-72 1024l584 584l72 -72l-584 -584zM696 0l201 201l199 -201l-199 -201zM696 1280l328 328l72 -72l-256 -256l184 -184l129 129l199 -201l-127 -127l55 -57l768 768l72 -72l-383 -383l127 -129l-199 -201l-129 129l-256 -256zM1079 129l201 199l201 -199 l-201 -201zM1208 -256l201 201l199 -201l-199 -201zM1208 1280l328 328l72 -72l-127 -127l127 -129l-199 -201zM1335 641l201 199l201 -199l-201 -201zM1591 385l201 199l201 -199l-201 -201z" />
<glyph unicode="&#xe5;" horiz-adv-x="512" d="M-72 0l72 72l129 -127l256 256l199 -201l-72 -72l-127 127l-256 -256zM-72 256l72 72l201 -199l-72 -74zM-72 -256l72 72l129 -127l127 127l201 -201l-72 -72l-129 129l-127 -129zM-72 512l72 72l256 -256l256 256l72 -72l-328 -328zM-72 1024l72 72l256 -256l256 256 l72 -72l-328 -328zM-72 1536l72 72l256 -256l256 256l72 -72l-328 -328zM311 -129l74 74l199 -201l-72 -72z" />
<glyph unicode="&#xe6;" d="M-72 0l72 72l584 -584l-72 -72zM-72 512l72 72l1096 -1096l-72 -72zM-72 768l72 72l584 -584l-72 -72zM-72 1024l72 72l713 -711l-72 -74zM-72 1280l72 72l840 -840l-72 -72zM-72 1536l72 72l969 -967l-72 -74zM440 1536l72 72l768 -768l768 768l72 -72l-1280 -1280 l768 -768l-72 -72l-840 840l512 512zM952 256l1096 1096l72 -72l-1096 -1096zM952 1536l72 72l328 -328l-72 -72zM1208 256l840 840l72 -72l-768 -768l768 -768l-72 -72zM1464 256l584 584l72 -72l-584 -584zM1720 256l328 328l72 -72l-256 -256l256 -256l-72 -72z" />
<glyph unicode="&#xe7;" d="M-72 0l72 72l512 -512l129 129l72 -74l-201 -199zM-72 512l1096 1096l768 -768l256 256l72 -72l-455 -457l-74 74l129 127l-696 696l-952 -952l1024 -1024l-72 -72zM-72 1024l584 584l72 -72l-584 -584zM440 512l584 584l1096 -1096l-72 -72l-1024 1024l-440 -440 l440 -440l184 184l-256 256l72 72l256 -256l129 129l72 -72l-129 -129l184 -184l129 129l72 -72l-129 -129l512 -512l-72 -72l-512 512l-184 -184l256 -256l-72 -72l-256 256l-127 -129l-74 72l129 129l-184 184l-127 -129l-74 72l129 129zM1096 0l184 -184l184 184 l-184 184zM1464 1536l72 72l328 -328l-72 -72zM1847 385l201 199l72 -72l-199 -201z" />
<glyph unicode="&#xe8;" d="M-72 0l256 256l-256 256l72 72l328 -328l-328 -328zM-72 -512l768 768l-768 768l72 72l129 -127l127 127l72 -72l-127 -127l184 -184l127 127l72 -72l-127 -127l184 -184l127 127l72 -72l-127 -127l127 -129l-840 -840zM-72 1536l72 72l2120 -2120l-72 -72l-256 256 l-127 -129l-74 72l129 129l-184 184l-127 -129l-74 72l129 129l-184 184l-127 -129l-74 74l129 127l-184 184l-127 -129l-74 74l129 127l-184 184l-127 -129l-74 74l129 127l-184 184l-127 -129l-74 74l129 127l-184 184l-127 -129l-74 74l129 127zM184 -512l840 840l72 -72 l-840 -840zM440 -512l584 584l129 -127l127 127l72 -72l-127 -129l184 -182l127 127l72 -72l-127 -129l127 -127l-72 -72l-512 512l-512 -512z" />
<glyph unicode="&#xe9;" horiz-adv-x="512" d="M-72 0l72 72l129 -127l199 -201l256 -256l-72 -72l-256 256l-127 -129l-201 201l127 127zM-72 256l127 129l-127 127l72 72l129 -127l199 -201l57 -55l199 -201l-72 -72l-127 -129l-201 201l127 129l-55 55l-127 -129zM-72 1024l72 72l256 -256l256 256l72 -72l-328 -328 zM-72 1536l72 72l256 -256l256 256l72 -72l-328 -328z" />
<glyph unicode="&#xeb;" d="M-72 0l768 768l-768 768l72 72l840 -840l-840 -840zM-72 -512l1280 1280l-256 256l584 584l584 -584l-584 -584l-256 256l-1280 -1280zM-72 512l256 256l-256 256l72 72l328 -328l-328 -328zM440 -512l840 840l840 -840l-72 -72l-768 768l-768 -768zM952 -512l328 328 l328 -328l-72 -72l-256 256l-256 -256zM1096 1024l440 -440l440 440l-440 440zM1208 1024l328 328l328 -328l-328 -328z" />
<glyph unicode="&#xee;" horiz-adv-x="512" d="M-72 0l127 129l-127 127l72 72l201 -199l-201 -201zM-72 -256l328 328l72 -72l-328 -328zM-72 -512l512 512l-512 512l72 72l584 -584l-584 -584zM-72 1024l584 584l72 -72l-584 -584zM184 768l328 328l72 -72l-256 -256l256 -256l-72 -72z" />
<glyph unicode="&#xf1;" d="M-72 0l72 72l256 -256l55 55l-127 129l127 129l-383 383l72 72l385 -383l639 639l72 -72l-639 -639l127 -129l-127 -129l127 -127l-72 -72l-127 127l-129 -127zM-72 256l72 72l201 -199l-72 -74zM-72 -512l201 201l72 -74l-201 -199zM-72 1024l72 72l512 -512l184 184 l-256 256l383 385l-127 127l72 72l129 -127l127 127l256 -256l129 129l72 -72l-129 -129l57 -55l127 127l72 -72l-127 -127l55 -57l184 184l-256 256l72 72l328 -328l-328 -328l-383 383l-129 -127l-127 127l-313 -311l256 -256l-455 -457l-74 74l129 127zM-72 1536l72 72 l256 -256l256 256l72 -72l-328 -328zM328 0l57 -55l55 55l-55 55zM440 -512l713 713l72 -72l-512 -514l127 -127l-72 -72l-127 127l-129 -127zM567 129l586 584l72 -72l-129 -129l696 -696l129 129l72 -74l-129 -127l57 -55l127 127l72 -72l-127 -129l127 -127l-72 -72 l-127 127l-129 -127l-72 72l127 127l-55 57l-127 -129l-74 72l129 129l-696 696l-184 -184l129 -127l-72 -74l-129 129l-127 -129zM696 1024l201 201l127 -129l129 129l967 -969l-72 -72l-383 383l-57 -55l512 -512l-72 -72l-512 512l-127 -129l-74 74l129 127l-440 440 l-127 -129zM840 1024l57 -55l55 55l-55 55zM969 1409l55 -57l55 57l-55 55zM1079 -129l74 74l455 -457l-72 -72zM1096 1024l440 -440l55 57l-438 438zM1720 768l328 328l72 -72l-256 -256l256 -256l-72 -72zM1847 1409l201 199l72 -72l-199 -201z" />
<glyph unicode="&#xf5;" horiz-adv-x="512" d="M-72 0l584 584l72 -72l-256 -256l256 -256l-72 -72l-256 256l-256 -256zM-72 256l328 328l72 -72l-328 -328zM-72 -256l328 328l328 -328l-72 -72l-256 256l-256 -256zM-72 512l328 328l72 -72l-328 -328zM-72 -512l328 328l72 -72l-328 -328zM-72 1024l584 584l72 -72 l-256 -256l256 -256l-72 -72l-256 256l-256 -256z" />
<glyph unicode="&#xf7;" horiz-adv-x="512" d="M-72 0l72 72l328 -328l-328 -328l-72 72l256 256zM-72 512l72 72l584 -584l-201 -201l-328 330l129 127zM-72 768l72 72l584 -584l-72 -72zM-72 1024l199 201l330 -328l-129 -129l256 -256l-72 -72zM184 1280l328 328l72 -72l-256 -256l256 -256l-72 -72z" />
<glyph unicode="&#xf8;" horiz-adv-x="512" d="M-72 256l127 129l-127 127l72 72l584 -584l-584 -584l-72 72l383 383l-127 129l127 129l-55 55l-127 -129zM-72 1024l72 72l256 -256l184 184l-512 512l72 72l584 -584l-328 -328z" />
<glyph unicode="&#xfc;" horiz-adv-x="512" d="M-72 -256l256 256l-256 256l72 72l328 -328l-328 -328zM-72 -512l512 512l-512 512l584 584l72 -72l-512 -512l512 -512l-584 -584zM-72 1024l584 584l72 -72l-584 -584zM184 512l72 72l328 -328l-72 -72zM184 -512l328 328l72 -72l-328 -328z" />
<glyph unicode="&#x131;" d="M-72 512l72 72l512 -512l440 440l-129 129l74 72l127 -129l1024 1024l72 -72l-1608 -1608zM-72 -512l328 328l72 -72l-328 -328zM-72 1024l256 256l-129 129l74 72l127 -129l256 256l72 -72l-584 -584zM184 768l256 256l-129 129l74 72l127 -129l512 512l72 -72 l-256 -256l57 -55l383 383l72 -72l-639 -639l55 -57l768 768l72 -72l-1096 -1096zM440 -512l768 768l-129 129l74 72l127 -129l512 512l328 -328l-72 -72l-256 256l-1280 -1280zM457 641l55 -57l184 184l-55 55zM952 -512l512 512l-129 129l74 72l127 -129l256 256l328 -328 l-584 -584l-72 72l127 127l-55 57l-256 -256l-72 72l256 256l-55 55l-385 -383zM1608 0l57 -55l182 184l-55 55zM1737 -129l55 -55l184 184l-55 55zM1847 -385l74 74l199 -201l-72 -72z" />
<glyph unicode="&#x152;" d="M-72 0l639 641l-438 438l-129 -127l-72 72l584 584l72 -72l-256 -256l512 -512l-840 -840zM-72 -512l1096 1096l768 -768l256 256l72 -72l-584 -584l-72 72l127 127l-694 696l-897 -895zM-72 512l328 328l72 -72l-328 -328zM-72 768l201 201l72 -72l-201 -201zM-72 1280 l328 328l72 -72l-328 -328zM55 385l330 328l72 -72l-328 -330zM184 -512l713 713l72 -72l-713 -713zM201 1153l440 -440l55 55l-440 440zM440 -512l584 584l72 -72l-584 -584zM696 1280l328 328l72 -72l-127 -127l440 -440l639 639l72 -72l-639 -639l440 -440l127 127 l72 -72l-328 -328zM823 -385l330 330l72 -74l-328 -328zM840 1280l952 -952l55 57l-950 950zM952 -512l328 328l72 -72l-328 -328zM969 385l696 -696l55 55l-696 696zM1079 1409l201 199l72 -72l-199 -201zM1208 -512l201 201l72 -74l-201 -199zM1208 1280l328 328l72 -72 l-328 -328zM1335 1153l330 328l72 -72l-328 -330zM1591 897l330 328l72 -72l-328 -330zM1720 768l328 328l72 -72l-328 -328zM1847 641l201 199l72 -72l-199 -201z" />
<glyph unicode="&#x153;" d="M-72 0l72 72l129 -127l694 696l-895 895l72 72l1096 -1096l-768 -768l256 -256l-72 -72zM-72 256l72 72l201 -199l-72 -74zM-72 512l72 72l328 -328l-72 -72zM-72 1024l72 72l584 -584l-72 -72zM-72 1280l72 72l713 -711l-72 -74zM55 641l74 72l328 -328l-72 -74z M201 -129l55 -55l696 696l-55 55zM440 1536l72 72l641 -639l438 440l-127 127l72 72l584 -584l-72 -72l-256 256l-512 -512zM696 -256l1096 1096l328 -328l-72 -72l-127 127l-440 -438l639 -641l-72 -72l-639 639l-440 -440l127 -127l-72 -72zM823 1409l74 72l328 -328 l-72 -74zM840 -256l57 -55l950 952l-55 55zM952 1536l72 72l328 -328l-72 -72zM1079 -385l74 74l199 -201l-72 -72zM1208 -256l72 72l328 -328l-72 -72zM1208 1536l72 72l201 -199l-72 -74zM1225 897l55 -57l440 440l-55 55zM1335 -129l74 74l328 -330l-72 -72zM1591 129 l74 72l328 -330l-72 -72zM1720 256l72 72l328 -328l-72 -72zM1720 1536l72 72l328 -328l-72 -72zM1847 385l74 72l199 -201l-72 -72z" />
<glyph unicode="&#x192;" d="M-72 0l256 256l-256 256l72 72l328 -328l-256 -256l256 -256l-72 -72zM-72 -256l72 72l201 -201l-72 -72zM-72 1024l256 256l-256 256l72 72l256 -256l256 256l72 -72l-256 -256l256 -256l-72 -72l-256 256l-256 -256zM184 768l72 72l256 -256l440 440l-256 256l72 72 l256 -256l256 256l72 -72l-256 -256l256 -256l-72 -72l-256 256l-184 -184l440 -440l440 440l-256 256l72 72l584 -584l-72 -72l-256 256l-440 -440l256 -256l-72 -72l-256 256l-440 -440l256 -256l-72 -72l-256 256l-256 -256l-72 72l256 256l-256 256l72 72l256 -256 l440 440l-440 440l-184 -184l256 -256l-72 -72zM311 897l74 72l127 -129l184 184l-129 129l74 72l199 -201l-328 -328zM696 512l72 72l201 -199l-72 -74zM952 768l72 72l201 -199l-72 -74zM1208 -256l72 72l256 -256l440 440l-256 256l72 72l328 -328l-584 -584zM1335 -129 l74 74l127 -129l184 184l-129 129l74 72l199 -201l-328 -328zM1464 1536l72 72l584 -584l-72 -72zM1720 1536l72 72l201 -199l-72 -74zM1847 -385l74 74l199 -201l-72 -72z" />
<glyph unicode="&#x2c6;" horiz-adv-x="512" d="M-72 0l256 256l-256 256l72 72l328 -328l-328 -328zM-72 -256l584 584l72 -72l-584 -584zM-72 -512l584 584l72 -72l-584 -584zM-72 1024l584 584l72 -72l-512 -512l512 -512l-72 -72z" />
<glyph unicode="&#x2c7;" horiz-adv-x="1024" d="M-72 0l72 72l512 -512l129 129l72 -74l-201 -199zM-72 512l201 201l72 -72l-129 -129l1024 -1024l-72 -72zM-72 -512l201 201l72 -74l-201 -199zM-72 1024l584 584l201 -199l-72 -74l-129 129l-184 -184l129 -127l-72 -74l-129 129l-184 -184l129 -127l-72 -74zM-72 1536 l72 72l201 -199l-72 -74zM184 768l840 840l72 -72l-256 -256l129 -127l-72 -74l-129 129l-184 -184l129 -127l-72 -74l-129 129l-184 -184l129 -127l-72 -74zM440 512l72 72l584 -584l-72 -72zM567 641l457 455l72 -72l-256 -256l256 -256l-72 -72l-256 256l-127 -129z" />
<glyph unicode="&#x2d8;" horiz-adv-x="512" d="M-72 0l512 512l-512 512l584 584l72 -72l-512 -512l512 -512l-512 -512l57 -55l127 127l72 -72l-199 -201zM-72 -512l584 584l72 -72l-584 -584zM55 385l129 127l-129 129l74 72l199 -201l-199 -201zM311 129l201 199l72 -72l-199 -201zM311 897l201 199l72 -72 l-127 -127l127 -129l-72 -72z" />
<glyph unicode="&#x2d9;" horiz-adv-x="1024" d="M-72 0l72 72l584 -584l-72 -72zM-72 512l72 72l256 -256l129 129l584 -586l-328 -328l-586 586l129 127zM-72 1024l584 584l72 -72l-256 -256l768 -768l-72 -72l-383 383l-256 -256zM201 129l184 -184l182 184l-182 182zM328 768l57 -55l182 184l-55 55zM440 512l72 72 l584 -584l-72 -72zM696 1280l328 328l72 -72l-328 -328z" />
<glyph unicode="&#x2da;" d="M-72 0l1608 1608l201 -199l-256 -256l639 -641l-72 -72l-639 639l-768 -768l-129 129l-512 -512zM-72 -256l584 584l201 -199l-713 -713l-72 72l127 127zM-72 512l584 584l72 -72l-584 -584zM-72 1024l584 584l72 -72l-584 -584zM72 -256l57 -55l438 440l-55 55z M440 -512l512 512l-256 256l713 713l584 -584l-129 -129l256 -256l-199 -201l-512 512l-897 -895zM567 1153l457 455l72 -72l-455 -457zM584 512l57 -55l950 952l-55 55zM823 -385l586 586l711 -713l-72 -72l-512 512l-512 -512zM840 256l184 -184l55 57l-182 182zM969 385 l184 -184l55 55l-184 184zM969 -385l55 -55l440 440l-55 55zM1096 512l184 -184l55 57l-182 182zM1225 641l696 -696l55 55l-696 696zM1352 768l440 -440l55 57l-438 438zM1591 1153l457 455l72 -72l-256 -256l256 -256l-199 -201zM1737 1153l184 -184l55 55l-184 184z" />
<glyph unicode="&#x2db;" d="M-72 0l768 770l-184 197l-510 -527l-74 70l584 604l258 -272l182 182l-256 256l328 328l72 -72l-256 -256l184 -184l512 512l72 -72l-768 -770q-10 -10 -18.5 -17.5t-18.5 -17.5l-803 -803zM-72 -256l1864 1864l72 -72l-1792 -1792l256 -256l-72 -72zM-72 768l512 512 l-256 256l72 72l256 -256l256 256l72 -72l-256 -256l256 -256l-72 -72l-256 256l-512 -512zM-72 1024l256 256l-256 256l72 72l328 -328l-328 -328zM184 -256l1864 1864l72 -72l-768 -768l184 -184l512 512l72 -72l-584 -584l-256 256l-184 -184l256 -256l-840 -840z M328 -256l184 -184l696 696l-184 184zM696 -512l768 768l-256 256l72 72l256 -256l512 512l72 -72l-512 -512l512 -512l-72 -72l-512 512l-768 -768zM952 -512l584 584l584 -584l-72 -72l-256 256l-256 -256l-72 72l256 256l-184 184l-512 -512zM1720 256l328 328l72 -72 l-256 -256l256 -256l-72 -72z" />
<glyph unicode="&#x2dc;" d="M-72 0l256 256l-256 256l72 72l328 -328l-328 -328zM-72 -512l201 201l72 -74l-201 -199zM-72 768l72 72l385 -383l55 55l-512 512l72 72l512 -512l129 129l72 -72l-129 -129l440 -440l129 129l199 -201l-199 -201l-129 129l-127 -129zM-72 1280l127 129l-127 127l72 72 l129 -127l127 127l72 -72l-127 -127l55 -57l129 129l72 -72l-129 -129l696 -696l184 184l-129 129l74 72l127 -129l129 129l72 -72l-584 -586l-74 74l129 127l-696 696l-127 -129l-74 74l129 127l-55 55l-129 -127zM184 -256l328 328l385 -383l127 127l129 -127l311 311 l-256 256l457 457l72 -72l-129 -129l512 -512l-72 -72l-512 512l-184 -184l256 -256l-383 -385l127 -127l-72 -72l-127 127l-129 -127l-256 256l-127 -129l-74 72l129 129l-55 55l-129 -127l-72 72l127 127l-55 57l-184 -184l256 -256l-72 -72zM440 1536l72 72l457 -455 l-72 -74zM457 385l440 -440l55 55l-440 440zM823 897l512 512l-127 127l72 72l129 -127l127 127l72 -72l-711 -713zM952 256l639 641l-127 127l127 129l-127 127l72 72l129 -127l127 127l328 -328l-72 -72l-256 256l-55 -55l127 -129l-127 -127l383 -385l-72 -72l-383 383 l-641 -639zM969 -385l55 -55l55 55l-55 57zM1096 0l57 -55l55 55l-55 55zM1464 -512l328 328l328 -328l-72 -72l-256 256l-256 -256zM1608 1024l57 -55l55 55l-55 55zM1847 897l74 72l199 -201l-72 -72zM1847 1409l201 199l72 -72l-199 -201z" />
<glyph unicode="&#x2dd;" d="M-72 0l768 768l-256 256l584 584l72 -72l-512 -512l184 -184l129 129l199 -201l-1096 -1096l-72 72l639 641l-55 55l-512 -512zM-72 -512l1280 1280l-256 256l584 584l72 -72l-383 -383l55 -57l512 512l72 -72l-512 -512l184 -184l512 512l72 -72l-512 -512l57 -55 l383 383l72 -72l-584 -584l-256 256l-1280 -1280zM-72 512l328 328l72 -72l-328 -328zM-72 1024l584 584l72 -72l-584 -584zM184 -512l1096 1096l201 -199l-129 -129l184 -184l512 512l72 -72l-584 -584l-256 256l-768 -768l-72 72l512 512l-55 55l-641 -639zM952 -512 l328 328l72 -72l-328 -328zM1464 -512l584 584l72 -72l-584 -584zM1464 1024l584 584l72 -72l-584 -584z" />
<glyph unicode="&#x3a9;" d="M-72 0l512 512l-184 184l-256 -256l-72 72l256 256l-256 256l457 457l72 -72l-385 -385l184 -184l641 641l72 -72l-641 -641l184 -184l256 256l72 -72l-256 -256l57 -55l256 256l328 -328l-256 -256l55 -57l256 256l72 -72l-256 -256l184 -184l641 641l72 -72l-641 -641 l184 -184l385 385l72 -74l-457 -455l-256 256l-256 -256l-72 72l256 256l-184 184l-512 -512l-72 72l512 512l-55 55l-129 -127l-328 328l127 129l-55 55l-512 -512zM-72 -256l72 72l328 -328l-72 -72zM-72 1280l328 328l72 -72l-328 -328zM55 -129l330 330l328 -330 l-328 -328zM584 256l184 -184l311 313l-182 182zM823 897l713 711l584 -584l-711 -713l-74 74l641 639l-440 440l-639 -641zM952 768l328 328l328 -328l-328 -328zM1335 1153l201 199l328 -328l-199 -201zM1481 1153l184 -184l55 55l-184 184zM1720 -512l328 328l72 -72 l-328 -328zM1720 1536l72 72l328 -328l-72 -72z" />
<glyph unicode="&#x3c0;" d="M-72 0l512 512l-512 512l72 72l584 -584l-584 -584zM-72 256l127 129l-127 127l72 72l201 -199l-201 -201zM-72 -256l457 457l72 -72l-457 -457zM-72 -512l840 840l840 -840l-72 -72l-768 768l-768 -768zM-72 1536l72 72l840 -840l-72 -72zM184 -512l201 201l72 -74 l-201 -199zM440 -512l328 328l328 -328l-72 -72l-256 256l-256 -256zM440 1536l72 72l768 -768l768 768l72 -72l-768 -768l768 -768l-72 -72zM823 641l74 72l1223 -1225l-72 -72zM952 -256l72 72l328 -328l-72 -72zM952 1536l72 72l256 -256l256 256l72 -72l-328 -328z M1079 129l74 72l711 -713l-72 -72zM1335 385l74 72l711 -713l-72 -72zM1335 1153l457 455l72 -72l-455 -457zM1720 512l72 72l328 -328l-72 -72zM1720 768l328 328l72 -72l-256 -256l256 -256l-72 -72zM1847 1153l201 199l72 -72l-199 -201z" />
<glyph unicode="&#x2000;" horiz-adv-x="1024" />
<glyph unicode="&#x2001;" />
<glyph unicode="&#x2002;" horiz-adv-x="1024" />
<glyph unicode="&#x2003;" />
<glyph unicode="&#x2013;" horiz-adv-x="512" d="M-72 256l72 72l328 -328l-72 -72zM-72 512l256 256l-256 256l584 584l72 -72l-512 -512l256 -256l-328 -328zM-72 -512l512 512l-256 256l328 328l72 -72l-256 -256l256 -256l-584 -584zM184 1024l72 72l328 -328l-72 -72z" />
<glyph unicode="&#x2014;" horiz-adv-x="512" d="M-72 0l256 256l-256 256l72 72l457 -455l-256 -258l383 -383l-72 -72zM-72 768l72 72l584 -584l-72 -72zM-72 1536l72 72l584 -584l-256 -256l256 -256l-72 -72l-457 457l256 256z" />
<glyph unicode="&#x2018;" d="M-72 -512l512 512l-512 512l72 72l512 -512l512 512l1096 -1096l-72 -72l-1024 1024l-184 -184l768 -768l-72 -72l-383 383l-129 -127l-383 383l-57 -55l512 -512l-72 -72l-512 512l-512 -512zM-72 1024l72 72l584 -584l-72 -72zM-72 1536l72 72l969 -967l-201 -201 l-457 457l129 127zM440 1536l72 72l768 -768l440 440l-256 256l72 72l256 -256l256 256l72 -72l-256 -256l256 -256l-72 -72l-256 256l-440 -440l768 -768l-72 -72l-383 383l-129 -127l-457 457l129 127zM823 1409l201 199l457 -455l-201 -201zM1720 768l72 72l328 -328 l-72 -72z" />
<glyph unicode="&#x2019;" d="M-72 0l768 768l-55 55l-512 -512l-74 74l512 512l-639 639l72 72l641 -639l512 512l72 -72l-512 -512l55 -57l768 768l72 -72l-1608 -1608zM-72 -512l1096 1096l1096 -1096l-72 -72l-1024 1024l-1024 -1024zM-72 512l256 256l-256 256l72 72l256 -256l129 129l72 -72 l-457 -457zM311 129l1098 1096l72 -72l-1096 -1098zM440 -512l584 584l584 -584l-72 -72l-512 512l-512 -512zM440 1536l72 72l256 -256l256 256l72 -72l-455 -457l-74 74l129 127zM567 -129l457 457l457 -457l-72 -72l-385 385l-383 -385zM823 -385l201 201l72 -72 l-199 -201zM952 -512l201 201l72 -74l-201 -199zM1079 641l969 967l72 -72l-967 -969zM1208 512l457 457l72 -72l-385 -385l385 -383l-72 -74zM1464 512l584 584l72 -72l-512 -512l512 -512l-72 -72zM1720 512l201 201l72 -72l-201 -201zM1847 385l201 199l72 -72l-199 -201 z" />
<glyph unicode="&#x201a;" horiz-adv-x="1024" d="M-72 0l256 256l-55 55l-129 -127l-72 72l127 129l-127 127l72 72l328 -328l-328 -328zM-72 -512l584 584l328 -328l-328 -328l-72 72l256 256l-55 55l-385 -383l-72 72l383 383l-55 57l-512 -512zM-72 768l127 129l-127 127l72 72l897 -895l127 127l72 -72l-127 -127 l127 -129l-72 -72l-895 895l-129 -127zM55 1409l201 199l72 -72l-199 -201zM184 1280l328 328l72 -72l-256 -256l57 -55l383 383l72 -72l-383 -383l55 -57l512 512l72 -72l-584 -584zM696 -512l201 201l72 -74l-201 -199zM696 768l328 328l72 -72l-256 -256l57 -55l127 127 l72 -72l-127 -127l127 -129l-72 -72z" />
<glyph unicode="&#x201c;" d="M-72 0l584 584l72 -72l-256 -256l184 -184l440 440l-696 696l-127 -129l-74 74l129 127l-129 129l74 72l127 -129l129 129l72 -72l-129 -129l1464 -1464l129 129l72 -74l-129 -127l256 -256l-72 -72l-256 256l-127 -129l-74 72l129 129l-696 696l-440 -440l184 -184 l256 256l72 -72l-584 -584l-72 72l256 256l-184 184l-311 -313l127 -127l-72 -72l-127 127l-129 -127l-72 72l127 127l-127 129l72 72l129 -127l311 311l-184 184l-256 -256zM-72 1024l72 72l328 -328l-72 -72zM55 -129l201 201l72 -72l-199 -201zM184 1024l72 72l201 -199 l-72 -74zM311 -385l201 201l72 -72l-199 -201zM440 256l201 201l72 -72l-201 -201zM440 1280l72 72l201 -199l-72 -74zM440 1536l72 72l328 -328l-72 -72zM696 0l201 201l72 -72l-201 -201zM952 1024l584 584l72 -72l-256 -256l184 -184l311 313l-127 127l72 72l129 -127 l127 127l72 -72l-127 -127l127 -129l-72 -72l-127 127l-313 -311l184 -184l256 256l72 -72l-584 -584l-72 72l256 256l-184 184l-256 -256l-72 72l256 256l-184 184l-256 -256zM1079 897l201 199l72 -72l-199 -201zM1208 -256l72 72l328 -328l-72 -72zM1335 -129l74 74 l199 -201l-72 -72zM1335 641l201 199l72 -72l-199 -201zM1464 1280l201 201l72 -72l-201 -201zM1591 129l74 72l199 -201l-72 -72zM1720 256l72 72l328 -328l-72 -72zM1720 1024l201 201l72 -72l-201 -201z" />
<glyph unicode="&#x201d;" d="M-72 0l512 512l-184 184l-256 -256l-72 72l584 584l256 -256l256 256l72 -72l-1096 -1096zM-72 1024l584 584l328 -328l-72 -72l-256 256l-512 -512zM184 -256l328 328l256 -256l256 256l328 -328l-328 -328l-256 256l-256 -256zM328 -256l184 -184l184 184l-184 184z M328 768l57 -55l182 184l-55 55zM696 256l328 328l512 -512l256 256l328 -328l-256 -256l256 -256l-72 -72l-1024 1024l-256 -256zM952 1536l72 72l256 -256l256 256l256 -256l256 256l72 -72l-512 -512l512 -512l-72 -72l-256 256l-256 -256l-328 328l256 256zM969 -129 l184 -182l55 55l-184 184zM1352 768l184 -184l55 57l-182 182zM1352 1280l184 -184l184 184l-184 184zM1608 0l184 -184l184 184l-184 184z" />
<glyph unicode="&#x201e;" d="M-72 0l72 72l512 -512l385 385l72 -74l-129 -127l256 -256l-72 -72l-256 256l-256 -256zM-72 512l72 72l512 -512l184 184l-768 768l72 72l1280 -1280l256 256l201 -201l-72 -72l-129 129l-256 -256l-512 512l-256 -256zM-72 768l72 72l584 -584l-72 -72zM-72 1280l72 72 l457 -455l-72 -74zM-72 1536l72 72l512 -512l385 385l72 -72l-129 -129l440 -440l256 256l72 -72l-328 -328l-512 512l-256 -256zM696 768l72 72l512 -512l385 385l72 -72l-129 -129l184 -184l256 256l72 -72l-328 -328l-256 256l-256 -256zM952 -256l72 72l256 -256 l256 256l256 -256l256 256l72 -72l-328 -328l-256 256l-256 -256zM952 1280l72 72l256 -256l256 256l256 -256l256 256l72 -72l-328 -328l-256 256l-256 -256zM952 1536l72 72l256 -256l256 256l256 -256l256 256l72 -72l-328 -328l-256 256l-256 -256zM1335 641l330 328 l127 -129l256 256l72 -72l-328 -328l-127 127l-256 -256zM1720 -256l328 328l72 -72l-328 -328zM1720 512l328 328l72 -72l-328 -328z" />
<glyph unicode="&#x2020;" horiz-adv-x="1024" d="M-72 0l584 584l72 -72l-512 -512l512 -512l-72 -72zM-72 512l256 256l-256 256l201 201l72 -72l-129 -129l184 -184l129 129l72 -72l-129 -129l129 -127l-72 -74l-129 129l-184 -184l129 -127l-72 -74zM-72 1536l72 72l584 -584l-72 -72zM311 129l74 72l127 -129l184 184 l-129 129l74 72l127 -129l256 256l72 -72l-512 -512l512 -512l-72 -72zM311 1409l201 199l584 -584l-72 -72l-256 256l-127 -129l-74 74l129 127l-184 184l-127 -129z" />
<glyph unicode="&#x2021;" d="M-72 0l328 328l72 -72l-328 -328zM-72 512l256 256l-256 256l72 72l768 -768l55 57l-512 512l74 72l512 -512l127 127l129 -127l639 639l328 -328l-895 -897l127 -127l-72 -72l-256 256l-256 -256l-328 328l256 256l-440 440l-256 -256zM184 -256l72 72l328 -328l-72 -72 zM184 1280l328 328l256 -256l256 256l256 -256l256 256l256 -256l55 57l-127 127l72 72l129 -127l127 127l72 -72l-256 -256l256 -256l-72 -72l-256 256l-512 -512l-256 256l-256 -256zM311 -129l74 74l455 -457l-72 -72zM328 1280l57 -55l182 184l-55 55zM457 1153l55 -57 l184 184l-55 55zM584 0l57 -55l438 440l-55 55zM840 1280l440 -440l55 57l-438 438zM969 1409l440 -440l55 55l-440 440zM1096 0l57 -55l823 823l-184 184l-567 -567l55 -57l512 512l72 -72zM1464 0l72 72l256 -256l256 256l72 -72l-256 -256l256 -256l-72 -72l-256 256 l-55 -57l127 -127l-72 -72l-127 127l-129 -127l-72 72l256 256zM1720 256l328 328l72 -72l-328 -328z" />
<glyph unicode="&#x2022;" horiz-adv-x="1024" d="M-72 0l328 328l256 -256l512 512l72 -72l-584 -584l-256 256l-256 -256zM-72 -256l328 328l328 -328l-328 -328l-127 127l-129 -127l-72 72l127 127zM-72 512l584 584l256 -256l256 256l72 -72l-328 -328l-256 256l-512 -512zM-72 1024l584 584l72 -72l-584 -584z M72 -256l57 -55l182 182l-55 57zM184 512l328 328l328 -328l-328 -328zM201 -385l55 -55l184 184l-55 55zM440 -512l584 584l72 -72l-584 -584zM440 1280l328 328l129 -127l127 127l72 -72l-127 -127l127 -129l-328 -328zM584 1280l57 -55l182 184l-55 55zM713 1153l55 -57 l184 184l-55 55z" />
<glyph unicode="&#x2026;" horiz-adv-x="1024" d="M-72 0l1024 1024l-440 440l-512 -512l-72 72l584 584l584 -584l-1096 -1096zM-72 512l584 584l201 -199l-72 -74l-129 129l-440 -440l129 -127l-72 -74zM-72 -512l512 512l-129 129l74 72l127 -129l440 440l-129 129l74 72l199 -201l-512 -512l512 -512l-72 -72l-512 512 l-512 -512z" />
<glyph unicode="&#x2030;" horiz-adv-x="1024" d="M-72 0l768 768l-440 440l-256 -256l-72 72l328 328l256 -256l184 184l-256 256l72 72l584 -584l-72 -72l-256 256l-184 -184l256 -256l-840 -840zM-72 256l457 457l72 -72l-457 -457zM-72 512l328 328l72 -72l-328 -328zM-72 -512l328 328l328 -328l-72 -72l-256 256 l-256 -256zM-72 768l201 201l72 -72l-201 -201zM311 -129l74 74l455 -457l-72 -72zM440 0l72 72l584 -584l-72 -72zM567 129l74 72l199 -201l-72 -72zM696 256l328 328l72 -72l-256 -256l256 -256l-72 -72z" />
<glyph unicode="&#x2039;" d="M-72 0l72 72l328 -328l-328 -328l-72 72l256 256zM-72 256l72 72l328 -328l-72 -72zM-72 512l72 72l1024 -1024l768 768l328 -328l-72 -72l-256 256l-768 -768zM-72 768l72 72l201 -199l-72 -74zM-72 1024l256 256l-256 256l72 72l328 -328l-256 -256l256 -256l-72 -72z M184 512l201 201l72 -72l-201 -201zM184 -512l201 201l72 -74l-201 -199zM184 1024l201 201l72 -72l-201 -201zM311 -129l74 74l455 -457l-72 -72zM311 385l74 72l199 -201l-72 -72zM311 897l74 72l199 -201l-72 -72zM311 1409l74 72l199 -201l-72 -72zM440 512l256 256 l-256 256l256 256l-256 256l72 72l328 -328l-256 -256l256 -256l-256 -256l440 -440l696 696l-256 256l256 256l-256 256l72 72l328 -328l-256 -256l512 -512l-72 -72l-256 256l-768 -768zM567 129l74 72l328 -330l-72 -72zM696 512l201 201l72 -72l-201 -201zM696 1024 l201 201l72 -72l-201 -201zM823 385l74 72l199 -201l-72 -72zM823 897l74 72l199 -201l-72 -72zM823 1409l74 72l199 -201l-72 -72zM952 -256l328 328l72 -72l-328 -328zM952 512l256 256l-256 256l256 256l-256 256l72 72l328 -328l-256 -256l256 -256l-328 -328zM1079 385 l201 199l72 -72l-199 -201zM1208 1024l72 72l201 -199l-72 -74zM1208 1536l72 72l201 -199l-72 -74zM1335 129l330 328l72 -72l-328 -330zM1335 -385l201 201l72 -72l-199 -201zM1335 641l201 199l72 -72l-199 -201zM1335 1153l201 199l72 -72l-199 -201zM1464 -512l328 328 l72 -72l-328 -328zM1591 -129l201 201l72 -72l-199 -201zM1720 512l72 72l328 -328l-72 -72zM1720 -512l201 201l72 -74l-201 -199zM1720 1024l201 201l72 -72l-201 -201zM1847 -129l74 74l199 -201l-72 -72zM1847 897l74 72l199 -201l-72 -72zM1847 1409l74 72l199 -201 l-72 -72z" />
<glyph unicode="&#x203a;" d="M-72 0l328 328l256 -256l256 256l256 -256l440 440l-696 696l-256 -256l-256 256l-256 -256l-72 72l328 328l256 -256l512 512l72 -72l-256 -256l768 -768l-584 -584l-256 256l-256 -256l-256 256l-256 -256zM-72 512l328 328l256 -256l256 256l328 -328l-72 -72 l-256 256l-256 -256l-256 256l-256 -256zM-72 -512l328 328l256 -256l256 256l72 -72l-328 -328l-256 256l-256 -256zM-72 768l201 201l72 -72l-201 -201zM55 -129l201 201l72 -72l-199 -201zM55 385l201 199l72 -72l-199 -201zM55 1409l201 199l72 -72l-199 -201zM184 1024 l72 72l201 -199l-72 -74zM311 -129l74 74l199 -201l-72 -72zM311 385l74 72l199 -201l-72 -72zM311 1409l74 72l199 -201l-72 -72zM440 768l201 201l72 -72l-201 -201zM567 -129l201 201l72 -72l-199 -201zM567 385l201 199l72 -72l-199 -201zM567 1409l201 199l72 -72 l-199 -201zM696 -512l201 201l72 -74l-201 -199zM696 1024l72 72l201 -199l-72 -74zM823 -129l74 74l199 -201l-72 -72zM823 385l74 72l199 -201l-72 -72zM952 -512l1024 1024l-768 768l328 328l72 -72l-256 -256l768 -768l-1096 -1096zM952 768l72 72l201 -199l-72 -74z M952 1280l328 328l72 -72l-328 -328zM1079 -129l201 201l72 -72l-199 -201zM1079 385l201 199l72 -72l-199 -201zM1079 1153l74 72l328 -328l-72 -74zM1208 -512l328 328l72 -72l-328 -328zM1335 129l330 328l72 -72l-328 -330zM1464 -512l328 328l328 -328l-72 -72 l-256 256l-256 -256zM1464 768l72 72l328 -328l-72 -72zM1464 1280l72 72l201 -199l-72 -74zM1591 -129l457 457l72 -72l-455 -457zM1591 1409l201 199l72 -72l-199 -201zM1720 1024l72 72l201 -199l-72 -74zM1720 1280l72 72l328 -328l-72 -72zM1847 -129l74 74l199 -201 l-72 -72zM1847 1409l74 72l199 -201l-72 -72z" />
<glyph unicode="&#x2044;" horiz-adv-x="512" d="M-72 0l256 256l-256 256l256 256l-256 256l201 201l256 -256l127 127l72 -72l-512 -512l512 -512l-199 -201l-256 256l-129 -127zM-72 -512l328 328l328 -328l-72 -72l-127 127l-129 -127l-72 72l127 127l-55 57l-256 -256zM-72 1536l72 72l129 -127l127 127l72 -72 l-127 -127l55 -57l256 256l72 -72l-328 -328zM201 129l184 -184l55 55l-184 184z" />
<glyph unicode="&#x20ac;" d="M-72 0l512 512l-512 512l72 72l129 -127l55 55l-256 256l72 72l457 -455l-129 -129l184 -184l256 256l256 -256l1024 1024l72 -72l-127 -127l127 -129l-72 -72l-127 127l-57 -55l256 -256l-72 -72l-256 256l-768 -768l-256 256l-768 -768zM-72 -256l840 840l385 -383 l639 639l72 -72l-840 -840l-256 256l-768 -768l-72 72l768 768l-55 55l-641 -639zM184 1280l328 328l72 -72l-256 -256l184 -184l256 256l256 -256l512 512l72 -72l-383 -383l55 -57l512 512l72 -72l-711 -713l-385 385l-256 -256zM440 -512l328 328l256 -256l1024 1024 l72 -72l-1096 -1096l-256 256l-256 -256zM840 256l184 -184l55 57l-182 182zM1464 -512l584 584l72 -72l-584 -584zM1720 -512l328 328l72 -72l-328 -328z" />
<glyph unicode="&#x2122;" d="M-72 -512l512 512l-512 512l72 72l584 -584l-584 -584zM-72 1024l72 72l512 -512l567 569l-55 55l-512 -512l-328 328l584 584l72 -72l-512 -512l184 -184l512 512l201 -199l-713 -713zM55 1153l457 455l72 -72l-455 -457zM440 -512l328 328l328 -328l-72 -72l-256 256 l-256 -256zM440 1024l584 584l1096 -1096l-72 -72l-256 256l-512 -512l-72 72l512 512l-696 696l-512 -512zM696 256l713 713l199 -201l-512 -512l184 -184l512 512l72 -72l-584 -584l-328 328l512 512l-55 55l-569 -567l440 -440l641 641l72 -72l-641 -641l184 -184 l512 512l72 -72l-584 -584zM1464 1536l72 72l584 -584l-72 -72z" />
<glyph unicode="&#x2202;" d="M-72 0l256 256l-256 256l256 256l-256 256l72 72l512 -512l512 512l840 -840l-840 -840l-72 72l768 768l-696 696l-1024 -1024zM-72 -512l1096 1096l328 -328l-840 -840l-72 72l127 127l-182 184l-385 -383zM-72 1536l72 72l256 -256l256 256l72 -72l-256 -256l184 -184 l512 512l72 -72l-584 -584zM72 512l184 -184l184 184l-184 184zM457 -129l184 -182l182 182l-182 184zM713 129l184 -184l55 55l-184 184zM1208 1280l328 328l584 -584l-256 -256l256 -256l-72 -72zM1464 -512l584 584l72 -72l-584 -584zM1481 1153l55 -57l184 184l-55 55z M1608 1024l184 -184l184 184l-184 184z" />
<glyph unicode="&#x2206;" d="M-72 0l72 72l256 -256l1792 1792l72 -72l-1792 -1792l256 -256l-72 -72zM-72 512l72 72l328 -328l-72 -72zM-72 1024l72 72l512 -512l440 440l-512 512l72 72l584 -584l-584 -584zM-72 1536l72 72l584 -584l-72 -72zM440 256l840 840l72 -72l-840 -840zM440 768l328 328 l72 -72l-328 -328zM696 0l840 840l72 -72l-840 -840zM696 -256l72 72l328 -328l-72 -72zM952 0l584 584l584 -584l-72 -72l-512 512l-440 -440l512 -512l-72 -72zM952 1536l72 72l256 -256l256 256l72 -72l-328 -328zM1208 0l328 328l72 -72l-328 -328zM1464 0l72 72 l584 -584l-72 -72zM1720 768l328 328l72 -72l-256 -256l256 -256l-72 -72z" />
<glyph unicode="&#x220f;" d="M-72 0l768 768l-768 768l72 72l840 -840l-840 -840zM-72 512l256 256l-256 256l72 72l328 -328l-328 -328zM-72 -512l969 969l72 -72l-969 -969zM55 385l385 383l-129 129l74 72l199 -201l-455 -457zM440 256l840 840l72 -72l-383 -383l184 -184l383 383l72 -72 l-840 -840l-72 72l383 385l-182 182l-385 -383zM440 -512l1608 1608l72 -72l-768 -768l768 -768l-72 -72l-768 768l-768 -768zM440 1536l72 72l512 -512l512 512l72 -72l-584 -584zM567 1153l74 72l328 -328l-72 -74zM696 1536l72 72l256 -256l129 129l72 -72l-201 -201z M823 -385l457 457l201 -201l-72 -72l-129 129l-383 -385zM952 -512l328 328l328 -328l-72 -72l-256 256l-256 -256zM1079 641l969 967l72 -72l-967 -969zM1464 256l457 457l72 -72l-385 -385l129 -127l-72 -74zM1720 256l328 328l72 -72l-256 -256l256 -256l-72 -72z" />
<glyph unicode="&#x2211;" d="M-72 -256l256 256l-129 129l74 72l199 -201l-256 -256l256 -256l-72 -72zM-72 512l256 256l-256 256l584 584l72 -72l-512 -512l385 -383l-72 -74l-129 129l-256 -256zM-72 1280l328 328l72 -72l-328 -328zM184 256l512 512l-256 256l584 584l72 -72l-512 -512l184 -184 l768 768l72 -72l-1280 -1280l256 -256l-199 -201l-74 72l129 129zM184 -256l72 72l328 -328l-72 -72zM696 -256l256 256l-256 256l584 584l72 -72l-512 -512l385 -385l-72 -72l-129 129l-184 -184l256 -256l-72 -72zM696 1024l584 584l72 -72l-584 -584zM952 256l457 457 l72 -72l-385 -385l385 -385l-129 -127l256 -256l-72 -72l-328 328l127 127zM952 -256l72 72l328 -328l-72 -72zM1208 256l512 512l-256 256l584 584l72 -72l-512 -512l385 -383l-72 -74l-129 129l-440 -440l256 -256l-72 -72zM1335 1153l457 455l72 -72l-455 -457z M1464 -256l256 256l-256 256l328 328l72 -72l-256 -256l256 -256l-256 -256l256 -256l-72 -72zM1720 -256l256 256l-256 256l328 328l72 -72l-256 -256l256 -256l-256 -256l256 -256l-72 -72z" />
<glyph unicode="&#x221a;" d="M-72 0l72 72l512 -512l1024 1024l72 -72l-768 -768l184 -184l55 55l-127 129l201 201l72 -74l-129 -127l57 -55l311 311l-55 55l-129 -127l-72 72l201 201l711 -713l-72 -72l-512 512l-512 -512l-256 256l-256 -256l-383 383l-57 -55l129 -129l-72 -72l-201 201l127 127z M-72 512l72 72l328 -328l-72 -72zM-72 768l72 72l129 -127l55 55l-256 256l72 72l512 -512l1024 1024l328 -328l-199 -201l-201 201l72 72l129 -127l55 55l-184 184l-184 -184l768 -768l-72 -72l-512 512l-1024 -1024l-201 201l201 199l72 -72l-127 -127l55 -57l311 313 l-55 55l-127 -129l-74 74l201 199l129 -127l55 55l-129 129l201 199l72 -72l-127 -127l55 -57l311 313l-55 55l-127 -129l-74 74l201 199l129 -127l55 55l-184 184l-768 -768l-127 127l-57 -55l129 -127l-72 -74l-201 201l127 129l-55 55l-127 -129zM-72 1536l72 72 l512 -512l55 57l-127 127l72 72l201 -199l-201 -201zM184 1536l72 72l129 -127l127 127l72 -72l-199 -201zM567 1409l201 199l72 -72l-127 -127l55 -57l256 256l72 -72l-328 -328zM1464 256l201 201l455 -457l-199 -201l-201 201l72 72l129 -127l55 55l-311 311l-57 -55 l129 -127l-72 -74zM1720 1024l201 201l199 -201l-72 -72l-127 127l-57 -55l129 -127l-72 -74z" />
<glyph unicode="&#x221e;" d="M-72 0l383 385l-127 127l328 328l328 -328l-328 -328l-127 127l-385 -383zM-72 -512l1024 1024l-440 440l-512 -512l-72 72l512 512l-256 256l328 328l72 -72l-256 -256l440 -440l768 768l72 -72l-768 -768l440 -440l768 768l72 -72l-768 -768l440 -440l256 256l72 -72 l-328 -328l-256 256l-512 -512l-72 72l512 512l-440 440l-1024 -1024zM-72 768l328 328l72 -72l-328 -328zM-72 1024l201 201l72 -72l-201 -201zM328 512l184 -184l184 184l-184 184zM440 -512l383 383l-127 129l328 328l328 -328l-328 -328l-127 127l-385 -383zM567 1153 l457 455l72 -72l-455 -457zM696 1024l584 584l72 -72l-584 -584zM840 0l184 -184l184 184l-184 184zM952 768l328 328l129 -127l639 639l72 -72l-639 -639l127 -129l-328 -328zM1096 768l184 -184l184 184l-184 184zM1208 -512l328 328l72 -72l-328 -328zM1464 256l584 584 l72 -72l-584 -584zM1464 -512l201 201l72 -74l-201 -199zM1591 129l457 455l72 -72l-455 -457z" />
<glyph unicode="&#x222b;" d="M-72 0l72 72l584 -584l-72 -72l-256 256l-127 -129l-74 72l129 129zM-72 512l584 584l1608 -1608l-72 -72l-1024 1024l-127 -129l-74 74l129 127l-440 440l-512 -512zM-72 1536l72 72l328 -328l-72 -72zM184 256l328 328l1096 -1096l-72 -72l-768 768l-55 -55l639 -641 l-72 -72l-383 383l-57 -55l256 -256l-72 -72l-512 512l-127 -129l-74 72l129 129zM440 1536l72 72l1280 -1280l256 256l72 -72l-328 -328l-512 512l-127 -129l-74 74l129 127zM457 385l184 -184l55 55l-184 184zM952 1536l72 72l385 -383l55 55l-256 256l72 72l256 -256 l55 57l-127 127l72 72l584 -584l-328 -328l-256 256l-127 -129l-74 74l129 127zM1608 1024l184 -184l55 57l-182 182zM1737 1153l184 -184l55 55l-184 184zM1847 1409l201 199l72 -72l-199 -201z" />
<glyph unicode="&#x2248;" d="M-72 0l72 72l256 -256l184 184l-512 512l72 72l584 -584l-584 -584l-72 72l256 256zM-72 768l72 72l768 -768l256 256l72 -72l-256 -256l512 -512l-72 -72l-512 512l-512 -512l-72 72l512 512zM-72 1024l328 328l1864 -1864l-72 -72l-768 768l-184 -184l512 -512l-72 -72 l-584 584l256 256l-184 184l-256 -256zM-72 1280l328 328l1864 -1864l-72 -72l-1792 1792l-256 -256zM72 1024l696 -696l184 184l-696 696zM440 -512l328 328l328 -328l-72 -72l-256 256l-256 -256zM440 1536l72 72l770 -768l197 184l-527 510l70 74l604 -584l-272 -258 l182 -182l256 256l328 -328l-72 -72l-256 256l-184 -184l512 -512l-72 -72l-770 768q-10 10 -17.5 18.5t-17.5 18.5zM1208 1536l72 72l512 -512l256 256l72 -72l-256 -256l256 -256l-72 -72l-256 256l-256 -256l-72 72l256 256zM1464 1536l72 72l256 -256l256 256l72 -72 l-328 -328z" />
<glyph unicode="&#x2260;" horiz-adv-x="512" d="M-72 0l256 256l-256 256l72 72l256 -256l129 129l72 -72l-129 -129l256 -256l-72 -72l-256 256l-256 -256zM-72 -512l256 256l-129 127l74 74l127 -129l129 129l72 -74l-129 -127l256 -256l-72 -72l-256 256l-256 -256zM-72 1024l72 72l256 -256l256 256l72 -72 l-256 -256l256 -256l-72 -72l-256 256l-127 -129l-74 74l129 127zM-72 1536l72 72l256 -256l256 256l72 -72l-256 -256l129 -127l-72 -74l-129 129l-127 -129l-74 74l129 127z" />
<glyph unicode="&#x2264;" horiz-adv-x="512" d="M-72 256l72 72l201 -199l-72 -74zM-72 512l512 512l-256 256l328 328l72 -72l-256 -256l256 -256l-512 -512l256 -256l-72 -72zM-72 1280l201 201l72 -72l-201 -201zM55 1153l74 72l199 -201l-72 -72zM184 0l201 201l72 -72l-201 -201zM184 -256l328 328l72 -72 l-256 -256l256 -256l-72 -72z" />
<glyph unicode="&#x2265;" horiz-adv-x="512" d="M-72 0l383 385l-256 256l201 199l328 -328l-512 -512l256 -256l-328 -328l-72 72l127 127l-127 129l72 72l129 -127l55 55zM-72 768l201 201l72 -72l-201 -201zM-72 1024l256 256l-256 256l72 72l328 -328l-328 -328zM184 -512l201 201l72 -74l-201 -199zM201 641 l184 -184l55 55l-184 184zM311 -129l201 201l72 -72l-127 -129l127 -127l-72 -72z" />
<glyph unicode="&#x25ca;" d="M-72 0l72 72l201 -201l-201 -199l-72 72l127 127zM-72 256l72 72l129 -127l55 55l-256 256l72 72l328 -328l-199 -201zM-72 -512l512 512l-55 55l-129 -127l-72 72l201 201l199 -201l-584 -584zM-72 1024l328 328l201 -199l-201 -201l-72 72l127 129l-55 55l-184 -184 l184 -184l768 768l72 -72l-512 -512l1024 -1024l-199 -201l-201 201l72 72l129 -127l55 55l-311 311l-57 -55l129 -127l-72 -74l-201 201l127 129l-55 55l-127 -129l-201 201l72 72l129 -127l55 55l-311 311l-57 -55l129 -127l-72 -74l-201 201l127 129l-55 55l-184 -184 l768 -768l-127 -129l55 -55l129 129l72 -74l-201 -199l-127 127l-57 -55l129 -129l-201 -199l-72 72l127 127l-55 57l-256 -256l-72 72l512 512zM311 1409l201 199l72 -72l-127 -127l55 -57l129 129l72 -72l-201 -201zM952 -512l328 328l72 -72l-328 -328zM952 1024l72 72 l768 -768l184 184l-55 55l-129 -127l-201 201l74 72l127 -129l55 57l-311 311l-55 -55l127 -129l-72 -72l-201 201l713 711l72 -72l-512 -512l512 -512l-256 -256l256 -256l-383 -385l55 -55l129 129l72 -74l-201 -199l-127 127l-129 -127l-72 72l512 512zM1079 1153 l457 455l201 -199l-201 -201l-72 72l127 129l-55 55l-311 -311l55 -57l129 129l72 -72l-201 -201z" />
<glyph unicode="&#x25fc;" horiz-adv-x="1607" d="M0 0v1608h1608v-1608h-1608z" />
<glyph unicode="&#xf8ff;" d="M-72 0l72 72l584 -584l-72 -72zM-72 512l72 72l457 -455l-72 -74zM-72 1024l201 201l256 -256l639 639l72 -72l-639 -639l768 -768l-129 -129l512 -512l-72 -72zM-72 1536l72 72l256 -256l256 256l201 -199l-328 -330zM72 1024l952 -952l55 57l-950 950zM328 1280l57 -55 l182 184l-55 55zM440 0l72 72l584 -584l-72 -72zM567 897l586 584l127 -129l256 256l201 -199l-512 -512l895 -897l-72 -72l-512 512l-256 -256zM713 897l55 -57l440 440l-55 55zM840 768l57 -55l694 696l-55 55zM969 641l55 -57l184 184l-55 55zM1096 512l57 -55l182 184 l-55 55zM1208 0l201 201l711 -713l-72 -72l-127 127l-129 -127zM1225 385l55 -57l184 184l-55 55zM1335 897l713 711l72 -72l-512 -512l512 -512l-199 -201zM1352 0l440 -440l55 55l-438 440zM1481 897l440 -440l55 55l-440 440z" />
<glyph unicode="&#xfb01;" d="M-72 0l72 72l584 -584l-72 -72zM-72 -256l72 72l328 -328l-72 -72zM-72 512l72 72l512 -512l1536 1536l72 -72l-256 -256l256 -256l-72 -72l-256 256l-1208 -1208l512 -512l-72 -72zM-72 1024l72 72l512 -512l696 696l-256 256l72 72l328 -328l-840 -840zM-72 1536l72 72 l512 -512l55 57l-383 383l72 72l385 -383l55 55l-256 256l72 72l328 -328l-328 -328zM952 0l840 840l328 -328l-72 -72l-256 256l-696 -696l512 -512l-72 -72zM1464 0l328 328l328 -328l-72 -72l-256 256l-55 -55l383 -385l-72 -72l-383 383l-57 -55l512 -512l-72 -72z" />
<glyph unicode="&#xfb02;" d="M-72 0l1608 1608l72 -72l-768 -768l184 -184l1024 1024l72 -72l-1024 -1024l440 -440l512 512l72 -72l-512 -512l385 -385l-72 -72l-129 129l-256 -256l-72 72l256 256l-440 440l-768 -768l-127 127l-129 -127l-72 72l201 201l127 -129l696 696l-440 440l-696 -696 l129 -129l-201 -199l-72 72l127 127zM-72 512l512 512l-184 184l-256 -256l-72 72l256 256l-129 129l74 72l383 -385l512 512l72 -72l-1096 -1096zM-72 -512l768 768l-129 129l201 199l328 -328l-199 -201l-129 129l-768 -768zM55 897l201 199l72 -72l-199 -201zM184 1536 l72 72l256 -256l55 57l-127 127l72 72l201 -199l-201 -201zM311 641l586 584l72 -72l-584 -586zM713 385l184 -184l55 55l-184 184zM952 -512l256 256l-129 127l201 201l328 -328l-199 -201l-129 129l-256 -256zM952 768l201 201l72 -72l-201 -201zM1208 512l201 201 l127 -129l512 512l72 -72l-512 -512l129 -127l-201 -201zM1352 -256l57 -55l55 55l-55 55zM1591 1409l201 199l72 -72l-199 -201zM1720 0l201 201l199 -201l-127 -129l127 -127l-72 -72zM1847 1153l201 199l72 -72l-199 -201z" />
<glyph />
<glyph />
<glyph />
<glyph />
<glyph />
<glyph />
<glyph />
<glyph />
<glyph />
<glyph />
<glyph />
<glyph />
<glyph />
<glyph />
<glyph />
<glyph />
<glyph />
<glyph />
<glyph />
<glyph />
<glyph />
<glyph />
<glyph />
<glyph />
<glyph />
<glyph />
<glyph />
<glyph />
<glyph />
<glyph />
<glyph />
<glyph />
<glyph />
<glyph />
<glyph />
<glyph />
<glyph />
<glyph />
<glyph />
<glyph />
<glyph horiz-adv-x="1024" />
<glyph />
<glyph />
<glyph />
</font>
</defs>
</svg>
